<?xml version="1.0" encoding="UTF-8" standalone="no"?>
<!DOCTYPE svg PUBLIC "-//W3C//DTD SVG 1.1//EN"
 "http://www.w3.org/Graphics/SVG/1.1/DTD/svg11.dtd">
<!-- Generated by graphviz version 2.40.1 (20161225.0304)
 -->
<!-- Title: snakemake_dag Pages: 1 -->
<svg width="2690pt" height="486pt"
 viewBox="0.00 0.00 2690.00 486.00" xmlns="http://www.w3.org/2000/svg" xmlns:xlink="http://www.w3.org/1999/xlink">
<g id="graph0" class="graph" transform="scale(1 1) rotate(0) translate(4 482)">
<title>snakemake_dag</title>
<polygon fill="#ffffff" stroke="transparent" points="-4,4 -4,-482 2686,-482 2686,4 -4,4"/>
<!-- 0 -->
<g id="node1" class="node">
<title>0</title>
<path fill="none" stroke="#56c1d8" stroke-width="2" stroke-dasharray="5,2" d="M1353,-36C1353,-36 1323,-36 1323,-36 1317,-36 1311,-30 1311,-24 1311,-24 1311,-12 1311,-12 1311,-6 1317,0 1323,0 1323,0 1353,0 1353,0 1359,0 1365,-6 1365,-12 1365,-12 1365,-24 1365,-24 1365,-30 1359,-36 1353,-36"/>
<text text-anchor="middle" x="1338" y="-15.5" font-family="sans" font-size="10.00" fill="#000000">all</text>
</g>
<!-- 1 -->
<g id="node2" class="node">
<title>1</title>
<path fill="none" stroke="#d8bc56" stroke-width="2" stroke-dasharray="5,2" d="M677.5,-108C677.5,-108 624.5,-108 624.5,-108 618.5,-108 612.5,-102 612.5,-96 612.5,-96 612.5,-84 612.5,-84 612.5,-78 618.5,-72 624.5,-72 624.5,-72 677.5,-72 677.5,-72 683.5,-72 689.5,-78 689.5,-84 689.5,-84 689.5,-96 689.5,-96 689.5,-102 683.5,-108 677.5,-108"/>
<text text-anchor="middle" x="651" y="-87.5" font-family="sans" font-size="10.00" fill="#000000">quast_strain</text>
</g>
<!-- 1&#45;&gt;0 -->
<g id="edge1" class="edge">
<title>1&#45;&gt;0</title>
<path fill="none" stroke="#c0c0c0" stroke-width="2" d="M689.9045,-85.9227C811.2767,-73.2024 1181.9483,-34.3548 1300.8632,-21.8921"/>
<polygon fill="#c0c0c0" stroke="#c0c0c0" stroke-width="2" points="1301.3477,-25.3606 1310.9284,-20.8372 1300.618,-18.3987 1301.3477,-25.3606"/>
</g>
<!-- 2 -->
<g id="node3" class="node">
<title>2</title>
<path fill="none" stroke="#d8bc56" stroke-width="2" stroke-dasharray="5,2" d="M1321.5,-108C1321.5,-108 1268.5,-108 1268.5,-108 1262.5,-108 1256.5,-102 1256.5,-96 1256.5,-96 1256.5,-84 1256.5,-84 1256.5,-78 1262.5,-72 1268.5,-72 1268.5,-72 1321.5,-72 1321.5,-72 1327.5,-72 1333.5,-78 1333.5,-84 1333.5,-84 1333.5,-96 1333.5,-96 1333.5,-102 1327.5,-108 1321.5,-108"/>
<text text-anchor="middle" x="1295" y="-87.5" font-family="sans" font-size="10.00" fill="#000000">quast_strain</text>
</g>
<!-- 2&#45;&gt;0 -->
<g id="edge2" class="edge">
<title>2&#45;&gt;0</title>
<path fill="none" stroke="#c0c0c0" stroke-width="2" d="M1305.8507,-71.8314C1310.7023,-63.7079 1316.5217,-53.9637 1321.868,-45.0118"/>
<polygon fill="#c0c0c0" stroke="#c0c0c0" stroke-width="2" points="1324.8806,-46.7933 1327.0032,-36.4133 1318.8708,-43.2041 1324.8806,-46.7933"/>
</g>
<!-- 3 -->
<g id="node4" class="node">
<title>3</title>
<path fill="none" stroke="#d8bc56" stroke-width="2" stroke-dasharray="5,2" d="M2052.5,-108C2052.5,-108 1999.5,-108 1999.5,-108 1993.5,-108 1987.5,-102 1987.5,-96 1987.5,-96 1987.5,-84 1987.5,-84 1987.5,-78 1993.5,-72 1999.5,-72 1999.5,-72 2052.5,-72 2052.5,-72 2058.5,-72 2064.5,-78 2064.5,-84 2064.5,-84 2064.5,-96 2064.5,-96 2064.5,-102 2058.5,-108 2052.5,-108"/>
<text text-anchor="middle" x="2026" y="-87.5" font-family="sans" font-size="10.00" fill="#000000">quast_strain</text>
</g>
<!-- 3&#45;&gt;0 -->
<g id="edge3" class="edge">
<title>3&#45;&gt;0</title>
<path fill="none" stroke="#c0c0c0" stroke-width="2" d="M1987.0389,-85.9227C1865.49,-73.2024 1494.2789,-34.3548 1375.1909,-21.8921"/>
<polygon fill="#c0c0c0" stroke="#c0c0c0" stroke-width="2" points="1375.4211,-18.3971 1365.1111,-20.8372 1374.6924,-25.3591 1375.4211,-18.3971"/>
</g>
<!-- 4 -->
<g id="node5" class="node">
<title>4</title>
<path fill="none" stroke="#68d856" stroke-width="2" stroke-dasharray="5,2" d="M1400.5,-108C1400.5,-108 1363.5,-108 1363.5,-108 1357.5,-108 1351.5,-102 1351.5,-96 1351.5,-96 1351.5,-84 1351.5,-84 1351.5,-78 1357.5,-72 1363.5,-72 1363.5,-72 1400.5,-72 1400.5,-72 1406.5,-72 1412.5,-78 1412.5,-84 1412.5,-84 1412.5,-96 1412.5,-96 1412.5,-102 1406.5,-108 1400.5,-108"/>
<text text-anchor="middle" x="1382" y="-87.5" font-family="sans" font-size="10.00" fill="#000000">quast_all</text>
</g>
<!-- 4&#45;&gt;0 -->
<g id="edge4" class="edge">
<title>4&#45;&gt;0</title>
<path fill="none" stroke="#c0c0c0" stroke-width="2" d="M1370.8969,-71.8314C1365.9326,-63.7079 1359.9778,-53.9637 1354.5072,-45.0118"/>
<polygon fill="#c0c0c0" stroke="#c0c0c0" stroke-width="2" points="1357.4536,-43.121 1349.2526,-36.4133 1351.4806,-46.7712 1357.4536,-43.121"/>
</g>
<!-- 5 -->
<g id="node6" class="node">
<title>5</title>
<path fill="none" stroke="#d85656" stroke-width="2" stroke-dasharray="5,2" d="M317.5,-180C317.5,-180 234.5,-180 234.5,-180 228.5,-180 222.5,-174 222.5,-168 222.5,-168 222.5,-156 222.5,-156 222.5,-150 228.5,-144 234.5,-144 234.5,-144 317.5,-144 317.5,-144 323.5,-144 329.5,-150 329.5,-156 329.5,-156 329.5,-168 329.5,-168 329.5,-174 323.5,-180 317.5,-180"/>
<text text-anchor="middle" x="276" y="-159.5" font-family="sans" font-size="10.00" fill="#000000">move_racon_short</text>
</g>
<!-- 5&#45;&gt;1 -->
<g id="edge5" class="edge">
<title>5&#45;&gt;1</title>
<path fill="none" stroke="#c0c0c0" stroke-width="2" d="M329.6722,-146.0199C332.4812,-145.3083 335.2696,-144.6298 338,-144 430.4445,-122.6764 540.0031,-105.6245 601.9188,-96.7336"/>
<polygon fill="#c0c0c0" stroke="#c0c0c0" stroke-width="2" points="602.7669,-100.1482 612.1736,-95.2733 601.78,-93.2181 602.7669,-100.1482"/>
</g>
<!-- 5&#45;&gt;4 -->
<g id="edge23" class="edge">
<title>5&#45;&gt;4</title>
<path fill="none" stroke="#c0c0c0" stroke-width="2" d="M329.5836,-145.5665C332.4158,-144.9733 335.2333,-144.4442 338,-144 555.31,-109.1094 1108.6269,-157.3521 1341.5687,-107.3952"/>
<polygon fill="#c0c0c0" stroke="#c0c0c0" stroke-width="2" points="1342.4187,-110.7915 1351.4061,-105.1812 1340.8816,-103.9623 1342.4187,-110.7915"/>
</g>
<!-- 6 -->
<g id="node7" class="node">
<title>6</title>
<path fill="none" stroke="#d85656" stroke-width="2" stroke-dasharray="5,2" d="M442.5,-180C442.5,-180 359.5,-180 359.5,-180 353.5,-180 347.5,-174 347.5,-168 347.5,-168 347.5,-156 347.5,-156 347.5,-150 353.5,-144 359.5,-144 359.5,-144 442.5,-144 442.5,-144 448.5,-144 454.5,-150 454.5,-156 454.5,-156 454.5,-168 454.5,-168 454.5,-174 448.5,-180 442.5,-180"/>
<text text-anchor="middle" x="401" y="-159.5" font-family="sans" font-size="10.00" fill="#000000">move_racon_short</text>
</g>
<!-- 6&#45;&gt;1 -->
<g id="edge6" class="edge">
<title>6&#45;&gt;1</title>
<path fill="none" stroke="#c0c0c0" stroke-width="2" d="M454.7658,-146.3804C457.5504,-145.5746 460.3079,-144.7774 463,-144 510.4695,-130.2919 564.7087,-114.7225 602.6887,-103.8357"/>
<polygon fill="#c0c0c0" stroke="#c0c0c0" stroke-width="2" points="603.8159,-107.1536 612.4646,-101.0339 601.8873,-100.4245 603.8159,-107.1536"/>
</g>
<!-- 6&#45;&gt;4 -->
<g id="edge26" class="edge">
<title>6&#45;&gt;4</title>
<path fill="none" stroke="#c0c0c0" stroke-width="2" d="M454.5864,-145.5837C457.4178,-144.986 460.2345,-144.4512 463,-144 845.5935,-81.5725 959.5276,-195.8751 1341.4668,-107.4951"/>
<polygon fill="#c0c0c0" stroke="#c0c0c0" stroke-width="2" points="1342.4658,-110.8558 1351.4022,-105.1645 1340.8672,-104.0408 1342.4658,-110.8558"/>
</g>
<!-- 7 -->
<g id="node8" class="node">
<title>7</title>
<path fill="none" stroke="#d85656" stroke-width="2" stroke-dasharray="5,2" d="M567.5,-180C567.5,-180 484.5,-180 484.5,-180 478.5,-180 472.5,-174 472.5,-168 472.5,-168 472.5,-156 472.5,-156 472.5,-150 478.5,-144 484.5,-144 484.5,-144 567.5,-144 567.5,-144 573.5,-144 579.5,-150 579.5,-156 579.5,-156 579.5,-168 579.5,-168 579.5,-174 573.5,-180 567.5,-180"/>
<text text-anchor="middle" x="526" y="-159.5" font-family="sans" font-size="10.00" fill="#000000">move_racon_short</text>
</g>
<!-- 7&#45;&gt;1 -->
<g id="edge7" class="edge">
<title>7&#45;&gt;1</title>
<path fill="none" stroke="#c0c0c0" stroke-width="2" d="M557.5428,-143.8314C573.6791,-134.5368 593.4986,-123.1208 610.7272,-113.1971"/>
<polygon fill="#c0c0c0" stroke="#c0c0c0" stroke-width="2" points="612.5489,-116.187 619.4673,-108.1628 609.055,-110.1212 612.5489,-116.187"/>
</g>
<!-- 7&#45;&gt;4 -->
<g id="edge24" class="edge">
<title>7&#45;&gt;4</title>
<path fill="none" stroke="#c0c0c0" stroke-width="2" d="M579.5902,-145.6066C582.4206,-145.0029 585.236,-144.4606 588,-144 915.6973,-89.3894 1013.837,-184.322 1341.6315,-107.4667"/>
<polygon fill="#c0c0c0" stroke="#c0c0c0" stroke-width="2" points="1342.4791,-110.8628 1351.397,-105.1424 1340.8583,-104.053 1342.4791,-110.8628"/>
</g>
<!-- 8 -->
<g id="node9" class="node">
<title>8</title>
<path fill="none" stroke="#d85656" stroke-width="2" stroke-dasharray="5,2" d="M692.5,-180C692.5,-180 609.5,-180 609.5,-180 603.5,-180 597.5,-174 597.5,-168 597.5,-168 597.5,-156 597.5,-156 597.5,-150 603.5,-144 609.5,-144 609.5,-144 692.5,-144 692.5,-144 698.5,-144 704.5,-150 704.5,-156 704.5,-156 704.5,-168 704.5,-168 704.5,-174 698.5,-180 692.5,-180"/>
<text text-anchor="middle" x="651" y="-159.5" font-family="sans" font-size="10.00" fill="#000000">move_racon_short</text>
</g>
<!-- 8&#45;&gt;1 -->
<g id="edge8" class="edge">
<title>8&#45;&gt;1</title>
<path fill="none" stroke="#c0c0c0" stroke-width="2" d="M651,-143.8314C651,-136.131 651,-126.9743 651,-118.4166"/>
<polygon fill="#c0c0c0" stroke="#c0c0c0" stroke-width="2" points="654.5001,-118.4132 651,-108.4133 647.5001,-118.4133 654.5001,-118.4132"/>
</g>
<!-- 8&#45;&gt;4 -->
<g id="edge27" class="edge">
<title>8&#45;&gt;4</title>
<path fill="none" stroke="#c0c0c0" stroke-width="2" d="M704.5956,-145.6385C707.4246,-145.0265 710.2382,-144.4737 713,-144 985.7489,-97.2192 1068.0876,-172.7547 1341.5793,-107.493"/>
<polygon fill="#c0c0c0" stroke="#c0c0c0" stroke-width="2" points="1342.4974,-110.8719 1351.3895,-105.1116 1340.846,-104.0694 1342.4974,-110.8719"/>
</g>
<!-- 9 -->
<g id="node10" class="node">
<title>9</title>
<path fill="none" stroke="#d85656" stroke-width="2" stroke-dasharray="5,2" d="M817.5,-180C817.5,-180 734.5,-180 734.5,-180 728.5,-180 722.5,-174 722.5,-168 722.5,-168 722.5,-156 722.5,-156 722.5,-150 728.5,-144 734.5,-144 734.5,-144 817.5,-144 817.5,-144 823.5,-144 829.5,-150 829.5,-156 829.5,-156 829.5,-168 829.5,-168 829.5,-174 823.5,-180 817.5,-180"/>
<text text-anchor="middle" x="776" y="-159.5" font-family="sans" font-size="10.00" fill="#000000">move_racon_short</text>
</g>
<!-- 9&#45;&gt;1 -->
<g id="edge9" class="edge">
<title>9&#45;&gt;1</title>
<path fill="none" stroke="#c0c0c0" stroke-width="2" d="M744.4572,-143.8314C728.3209,-134.5368 708.5014,-123.1208 691.2728,-113.1971"/>
<polygon fill="#c0c0c0" stroke="#c0c0c0" stroke-width="2" points="692.945,-110.1212 682.5327,-108.1628 689.4511,-116.187 692.945,-110.1212"/>
</g>
<!-- 9&#45;&gt;4 -->
<g id="edge25" class="edge">
<title>9&#45;&gt;4</title>
<path fill="none" stroke="#c0c0c0" stroke-width="2" d="M829.6039,-145.6862C832.4308,-145.0617 835.2417,-144.4932 838,-144 1055.8266,-105.0524 1122.3062,-161.2328 1341.5001,-107.534"/>
<polygon fill="#c0c0c0" stroke="#c0c0c0" stroke-width="2" points="1342.5249,-110.8856 1351.3781,-105.0656 1340.8278,-104.0945 1342.5249,-110.8856"/>
</g>
<!-- 10 -->
<g id="node11" class="node">
<title>10</title>
<path fill="none" stroke="#d85656" stroke-width="2" stroke-dasharray="5,2" d="M942.5,-180C942.5,-180 859.5,-180 859.5,-180 853.5,-180 847.5,-174 847.5,-168 847.5,-168 847.5,-156 847.5,-156 847.5,-150 853.5,-144 859.5,-144 859.5,-144 942.5,-144 942.5,-144 948.5,-144 954.5,-150 954.5,-156 954.5,-156 954.5,-168 954.5,-168 954.5,-174 948.5,-180 942.5,-180"/>
<text text-anchor="middle" x="901" y="-159.5" font-family="sans" font-size="10.00" fill="#000000">move_racon_short</text>
</g>
<!-- 10&#45;&gt;1 -->
<g id="edge10" class="edge">
<title>10&#45;&gt;1</title>
<path fill="none" stroke="#c0c0c0" stroke-width="2" d="M847.3687,-146.5542C803.5366,-133.9305 742.0972,-116.236 699.6691,-104.0167"/>
<polygon fill="#c0c0c0" stroke="#c0c0c0" stroke-width="2" points="700.4284,-100.5932 689.8503,-101.1889 698.491,-107.3198 700.4284,-100.5932"/>
</g>
<!-- 10&#45;&gt;4 -->
<g id="edge28" class="edge">
<title>10&#45;&gt;4</title>
<path fill="none" stroke="#c0c0c0" stroke-width="2" d="M954.6185,-145.7649C957.4415,-145.1199 960.2476,-144.5254 963,-144 1125.9552,-112.8921 1176.4636,-149.8014 1341.3658,-107.6066"/>
<polygon fill="#c0c0c0" stroke="#c0c0c0" stroke-width="2" points="1342.5714,-110.909 1351.3584,-104.9897 1340.7979,-104.1373 1342.5714,-110.909"/>
</g>
<!-- 11 -->
<g id="node12" class="node">
<title>11</title>
<path fill="none" stroke="#d85656" stroke-width="2" stroke-dasharray="5,2" d="M1067.5,-180C1067.5,-180 984.5,-180 984.5,-180 978.5,-180 972.5,-174 972.5,-168 972.5,-168 972.5,-156 972.5,-156 972.5,-150 978.5,-144 984.5,-144 984.5,-144 1067.5,-144 1067.5,-144 1073.5,-144 1079.5,-150 1079.5,-156 1079.5,-156 1079.5,-168 1079.5,-168 1079.5,-174 1073.5,-180 1067.5,-180"/>
<text text-anchor="middle" x="1026" y="-159.5" font-family="sans" font-size="10.00" fill="#000000">move_racon_short</text>
</g>
<!-- 11&#45;&gt;2 -->
<g id="edge11" class="edge">
<title>11&#45;&gt;2</title>
<path fill="none" stroke="#c0c0c0" stroke-width="2" d="M1079.743,-146.2997C1082.5335,-145.515 1085.2986,-144.7443 1088,-144 1142.1976,-129.0664 1204.6717,-112.9139 1246.6874,-102.2048"/>
<polygon fill="#c0c0c0" stroke="#c0c0c0" stroke-width="2" points="1247.5552,-105.5956 1256.3832,-99.7375 1245.8289,-98.8118 1247.5552,-105.5956"/>
</g>
<!-- 11&#45;&gt;4 -->
<g id="edge29" class="edge">
<title>11&#45;&gt;4</title>
<path fill="none" stroke="#c0c0c0" stroke-width="2" d="M1079.6498,-145.9195C1082.4647,-145.2341 1085.2605,-144.5887 1088,-144 1196.3154,-120.7237 1230.5483,-138.6303 1341.4235,-107.6742"/>
<polygon fill="#c0c0c0" stroke="#c0c0c0" stroke-width="2" points="1342.6673,-110.9588 1351.3172,-104.8408 1340.74,-104.2293 1342.6673,-110.9588"/>
</g>
<!-- 12 -->
<g id="node13" class="node">
<title>12</title>
<path fill="none" stroke="#d85656" stroke-width="2" stroke-dasharray="5,2" d="M1192.5,-180C1192.5,-180 1109.5,-180 1109.5,-180 1103.5,-180 1097.5,-174 1097.5,-168 1097.5,-168 1097.5,-156 1097.5,-156 1097.5,-150 1103.5,-144 1109.5,-144 1109.5,-144 1192.5,-144 1192.5,-144 1198.5,-144 1204.5,-150 1204.5,-156 1204.5,-156 1204.5,-168 1204.5,-168 1204.5,-174 1198.5,-180 1192.5,-180"/>
<text text-anchor="middle" x="1151" y="-159.5" font-family="sans" font-size="10.00" fill="#000000">move_racon_short</text>
</g>
<!-- 12&#45;&gt;2 -->
<g id="edge12" class="edge">
<title>12&#45;&gt;2</title>
<path fill="none" stroke="#c0c0c0" stroke-width="2" d="M1187.3373,-143.8314C1206.3396,-134.3302 1229.7758,-122.6121 1249.9252,-112.5374"/>
<polygon fill="#c0c0c0" stroke="#c0c0c0" stroke-width="2" points="1251.545,-115.6407 1258.924,-108.038 1248.4145,-109.3797 1251.545,-115.6407"/>
</g>
<!-- 12&#45;&gt;4 -->
<g id="edge32" class="edge">
<title>12&#45;&gt;4</title>
<path fill="none" stroke="#c0c0c0" stroke-width="2" d="M1204.7586,-146.3556C1207.5451,-145.5563 1210.305,-144.7672 1213,-144 1267.3421,-128.5295 1284.3238,-128.2565 1341.6262,-107.8718"/>
<polygon fill="#c0c0c0" stroke="#c0c0c0" stroke-width="2" points="1342.9638,-111.1101 1351.1809,-104.4221 1340.5866,-104.5261 1342.9638,-111.1101"/>
</g>
<!-- 13 -->
<g id="node14" class="node">
<title>13</title>
<path fill="none" stroke="#d85656" stroke-width="2" stroke-dasharray="5,2" d="M1317.5,-180C1317.5,-180 1234.5,-180 1234.5,-180 1228.5,-180 1222.5,-174 1222.5,-168 1222.5,-168 1222.5,-156 1222.5,-156 1222.5,-150 1228.5,-144 1234.5,-144 1234.5,-144 1317.5,-144 1317.5,-144 1323.5,-144 1329.5,-150 1329.5,-156 1329.5,-156 1329.5,-168 1329.5,-168 1329.5,-174 1323.5,-180 1317.5,-180"/>
<text text-anchor="middle" x="1276" y="-159.5" font-family="sans" font-size="10.00" fill="#000000">move_racon_short</text>
</g>
<!-- 13&#45;&gt;2 -->
<g id="edge13" class="edge">
<title>13&#45;&gt;2</title>
<path fill="none" stroke="#c0c0c0" stroke-width="2" d="M1280.7945,-143.8314C1282.8489,-136.0463 1285.296,-126.7729 1287.5756,-118.1347"/>
<polygon fill="#c0c0c0" stroke="#c0c0c0" stroke-width="2" points="1290.9735,-118.9753 1290.1409,-108.4133 1284.2052,-117.1892 1290.9735,-118.9753"/>
</g>
<!-- 13&#45;&gt;4 -->
<g id="edge30" class="edge">
<title>13&#45;&gt;4</title>
<path fill="none" stroke="#c0c0c0" stroke-width="2" d="M1302.7483,-143.8314C1316.0553,-134.7927 1332.316,-123.7476 1346.6375,-114.0198"/>
<polygon fill="#c0c0c0" stroke="#c0c0c0" stroke-width="2" points="1348.9547,-116.677 1355.2603,-108.1628 1345.0215,-110.8864 1348.9547,-116.677"/>
</g>
<!-- 14 -->
<g id="node15" class="node">
<title>14</title>
<path fill="none" stroke="#d85656" stroke-width="2" stroke-dasharray="5,2" d="M1442.5,-180C1442.5,-180 1359.5,-180 1359.5,-180 1353.5,-180 1347.5,-174 1347.5,-168 1347.5,-168 1347.5,-156 1347.5,-156 1347.5,-150 1353.5,-144 1359.5,-144 1359.5,-144 1442.5,-144 1442.5,-144 1448.5,-144 1454.5,-150 1454.5,-156 1454.5,-156 1454.5,-168 1454.5,-168 1454.5,-174 1448.5,-180 1442.5,-180"/>
<text text-anchor="middle" x="1401" y="-159.5" font-family="sans" font-size="10.00" fill="#000000">move_racon_short</text>
</g>
<!-- 14&#45;&gt;2 -->
<g id="edge14" class="edge">
<title>14&#45;&gt;2</title>
<path fill="none" stroke="#c0c0c0" stroke-width="2" d="M1374.2517,-143.8314C1360.9447,-134.7927 1344.684,-123.7476 1330.3625,-114.0198"/>
<polygon fill="#c0c0c0" stroke="#c0c0c0" stroke-width="2" points="1331.9785,-110.8864 1321.7397,-108.1628 1328.0453,-116.677 1331.9785,-110.8864"/>
</g>
<!-- 14&#45;&gt;4 -->
<g id="edge33" class="edge">
<title>14&#45;&gt;4</title>
<path fill="none" stroke="#c0c0c0" stroke-width="2" d="M1396.2055,-143.8314C1394.1511,-136.0463 1391.704,-126.7729 1389.4244,-118.1347"/>
<polygon fill="#c0c0c0" stroke="#c0c0c0" stroke-width="2" points="1392.7948,-117.1892 1386.8591,-108.4133 1386.0265,-118.9753 1392.7948,-117.1892"/>
</g>
<!-- 15 -->
<g id="node16" class="node">
<title>15</title>
<path fill="none" stroke="#d85656" stroke-width="2" stroke-dasharray="5,2" d="M1567.5,-180C1567.5,-180 1484.5,-180 1484.5,-180 1478.5,-180 1472.5,-174 1472.5,-168 1472.5,-168 1472.5,-156 1472.5,-156 1472.5,-150 1478.5,-144 1484.5,-144 1484.5,-144 1567.5,-144 1567.5,-144 1573.5,-144 1579.5,-150 1579.5,-156 1579.5,-156 1579.5,-168 1579.5,-168 1579.5,-174 1573.5,-180 1567.5,-180"/>
<text text-anchor="middle" x="1526" y="-159.5" font-family="sans" font-size="10.00" fill="#000000">move_racon_short</text>
</g>
<!-- 15&#45;&gt;2 -->
<g id="edge15" class="edge">
<title>15&#45;&gt;2</title>
<path fill="none" stroke="#c0c0c0" stroke-width="2" d="M1472.1687,-146.4401C1428.4978,-133.7827 1370.7253,-116.9506 1343.1851,-108.2032"/>
<polygon fill="#c0c0c0" stroke="#c0c0c0" stroke-width="2" points="1344.232,-104.8633 1333.6394,-105.0801 1342.0553,-111.5162 1344.232,-104.8633"/>
</g>
<!-- 15&#45;&gt;4 -->
<g id="edge31" class="edge">
<title>15&#45;&gt;4</title>
<path fill="none" stroke="#c0c0c0" stroke-width="2" d="M1489.6627,-143.8314C1469.0506,-133.5253 1443.2217,-120.6108 1422.0295,-110.0148"/>
<polygon fill="#c0c0c0" stroke="#c0c0c0" stroke-width="2" points="1423.4675,-106.8207 1412.9579,-105.479 1420.3369,-113.0817 1423.4675,-106.8207"/>
</g>
<!-- 16 -->
<g id="node17" class="node">
<title>16</title>
<path fill="none" stroke="#d85656" stroke-width="2" stroke-dasharray="5,2" d="M1692.5,-180C1692.5,-180 1609.5,-180 1609.5,-180 1603.5,-180 1597.5,-174 1597.5,-168 1597.5,-168 1597.5,-156 1597.5,-156 1597.5,-150 1603.5,-144 1609.5,-144 1609.5,-144 1692.5,-144 1692.5,-144 1698.5,-144 1704.5,-150 1704.5,-156 1704.5,-156 1704.5,-168 1704.5,-168 1704.5,-174 1698.5,-180 1692.5,-180"/>
<text text-anchor="middle" x="1651" y="-159.5" font-family="sans" font-size="10.00" fill="#000000">move_racon_short</text>
</g>
<!-- 16&#45;&gt;2 -->
<g id="edge16" class="edge">
<title>16&#45;&gt;2</title>
<path fill="none" stroke="#c0c0c0" stroke-width="2" d="M1597.1626,-146.1084C1594.0727,-145.3554 1591.0027,-144.6457 1588,-144 1483.1363,-121.4512 1450.796,-135.0739 1343.4373,-108.0781"/>
<polygon fill="#c0c0c0" stroke="#c0c0c0" stroke-width="2" points="1344.0646,-104.6255 1333.5076,-105.5207 1342.3187,-111.4043 1344.0646,-104.6255"/>
</g>
<!-- 16&#45;&gt;4 -->
<g id="edge34" class="edge">
<title>16&#45;&gt;4</title>
<path fill="none" stroke="#c0c0c0" stroke-width="2" d="M1597.4062,-146.601C1594.2255,-145.714 1591.0719,-144.8414 1588,-144 1530.6797,-128.3005 1464.1229,-111.026 1422.5291,-100.3443"/>
<polygon fill="#c0c0c0" stroke="#c0c0c0" stroke-width="2" points="1423.3249,-96.9352 1412.7689,-97.8412 1421.5859,-103.7158 1423.3249,-96.9352"/>
</g>
<!-- 17 -->
<g id="node18" class="node">
<title>17</title>
<path fill="none" stroke="#d85656" stroke-width="2" stroke-dasharray="5,2" d="M1817.5,-180C1817.5,-180 1734.5,-180 1734.5,-180 1728.5,-180 1722.5,-174 1722.5,-168 1722.5,-168 1722.5,-156 1722.5,-156 1722.5,-150 1728.5,-144 1734.5,-144 1734.5,-144 1817.5,-144 1817.5,-144 1823.5,-144 1829.5,-150 1829.5,-156 1829.5,-156 1829.5,-168 1829.5,-168 1829.5,-174 1823.5,-180 1817.5,-180"/>
<text text-anchor="middle" x="1776" y="-159.5" font-family="sans" font-size="10.00" fill="#000000">move_racon_short</text>
</g>
<!-- 17&#45;&gt;3 -->
<g id="edge17" class="edge">
<title>17&#45;&gt;3</title>
<path fill="none" stroke="#c0c0c0" stroke-width="2" d="M1829.7658,-146.3804C1832.5504,-145.5746 1835.3079,-144.7774 1838,-144 1885.4695,-130.2919 1939.7087,-114.7225 1977.6887,-103.8357"/>
<polygon fill="#c0c0c0" stroke="#c0c0c0" stroke-width="2" points="1978.8159,-107.1536 1987.4646,-101.0339 1976.8873,-100.4245 1978.8159,-107.1536"/>
</g>
<!-- 17&#45;&gt;4 -->
<g id="edge35" class="edge">
<title>17&#45;&gt;4</title>
<path fill="none" stroke="#c0c0c0" stroke-width="2" d="M1722.4927,-146.253C1719.2903,-145.4535 1716.1083,-144.6951 1713,-144 1609.6004,-120.8769 1485.9522,-103.3419 1423.0879,-95.1342"/>
<polygon fill="#c0c0c0" stroke="#c0c0c0" stroke-width="2" points="1423.1699,-91.6158 1412.8035,-93.8041 1422.272,-98.558 1423.1699,-91.6158"/>
</g>
<!-- 18 -->
<g id="node19" class="node">
<title>18</title>
<path fill="none" stroke="#d85656" stroke-width="2" stroke-dasharray="5,2" d="M1942.5,-180C1942.5,-180 1859.5,-180 1859.5,-180 1853.5,-180 1847.5,-174 1847.5,-168 1847.5,-168 1847.5,-156 1847.5,-156 1847.5,-150 1853.5,-144 1859.5,-144 1859.5,-144 1942.5,-144 1942.5,-144 1948.5,-144 1954.5,-150 1954.5,-156 1954.5,-156 1954.5,-168 1954.5,-168 1954.5,-174 1948.5,-180 1942.5,-180"/>
<text text-anchor="middle" x="1901" y="-159.5" font-family="sans" font-size="10.00" fill="#000000">move_racon_short</text>
</g>
<!-- 18&#45;&gt;3 -->
<g id="edge18" class="edge">
<title>18&#45;&gt;3</title>
<path fill="none" stroke="#c0c0c0" stroke-width="2" d="M1932.5428,-143.8314C1948.6791,-134.5368 1968.4986,-123.1208 1985.7272,-113.1971"/>
<polygon fill="#c0c0c0" stroke="#c0c0c0" stroke-width="2" points="1987.5489,-116.187 1994.4673,-108.1628 1984.055,-110.1212 1987.5489,-116.187"/>
</g>
<!-- 18&#45;&gt;4 -->
<g id="edge38" class="edge">
<title>18&#45;&gt;4</title>
<path fill="none" stroke="#c0c0c0" stroke-width="2" d="M1847.1832,-146.0094C1844.0881,-145.2816 1841.0112,-144.6044 1838,-144 1686.5251,-113.5962 1503.0625,-98.2786 1422.852,-92.6299"/>
<polygon fill="#c0c0c0" stroke="#c0c0c0" stroke-width="2" points="1422.9024,-89.1251 1412.6848,-91.9271 1422.4195,-96.1085 1422.9024,-89.1251"/>
</g>
<!-- 19 -->
<g id="node20" class="node">
<title>19</title>
<path fill="none" stroke="#d85656" stroke-width="2" stroke-dasharray="5,2" d="M2067.5,-180C2067.5,-180 1984.5,-180 1984.5,-180 1978.5,-180 1972.5,-174 1972.5,-168 1972.5,-168 1972.5,-156 1972.5,-156 1972.5,-150 1978.5,-144 1984.5,-144 1984.5,-144 2067.5,-144 2067.5,-144 2073.5,-144 2079.5,-150 2079.5,-156 2079.5,-156 2079.5,-168 2079.5,-168 2079.5,-174 2073.5,-180 2067.5,-180"/>
<text text-anchor="middle" x="2026" y="-159.5" font-family="sans" font-size="10.00" fill="#000000">move_racon_short</text>
</g>
<!-- 19&#45;&gt;3 -->
<g id="edge19" class="edge">
<title>19&#45;&gt;3</title>
<path fill="none" stroke="#c0c0c0" stroke-width="2" d="M2026,-143.8314C2026,-136.131 2026,-126.9743 2026,-118.4166"/>
<polygon fill="#c0c0c0" stroke="#c0c0c0" stroke-width="2" points="2029.5001,-118.4132 2026,-108.4133 2022.5001,-118.4133 2029.5001,-118.4132"/>
</g>
<!-- 19&#45;&gt;4 -->
<g id="edge36" class="edge">
<title>19&#45;&gt;4</title>
<path fill="none" stroke="#c0c0c0" stroke-width="2" d="M1972.2009,-145.9182C1969.1013,-145.2136 1966.0186,-144.5664 1963,-144 1762.4279,-106.3636 1517.7505,-94.5219 1422.5802,-91.1841"/>
<polygon fill="#c0c0c0" stroke="#c0c0c0" stroke-width="2" points="1422.6304,-87.6839 1412.5177,-90.8437 1422.3936,-94.6799 1422.6304,-87.6839"/>
</g>
<!-- 20 -->
<g id="node21" class="node">
<title>20</title>
<path fill="none" stroke="#d85656" stroke-width="2" stroke-dasharray="5,2" d="M2192.5,-180C2192.5,-180 2109.5,-180 2109.5,-180 2103.5,-180 2097.5,-174 2097.5,-168 2097.5,-168 2097.5,-156 2097.5,-156 2097.5,-150 2103.5,-144 2109.5,-144 2109.5,-144 2192.5,-144 2192.5,-144 2198.5,-144 2204.5,-150 2204.5,-156 2204.5,-156 2204.5,-168 2204.5,-168 2204.5,-174 2198.5,-180 2192.5,-180"/>
<text text-anchor="middle" x="2151" y="-159.5" font-family="sans" font-size="10.00" fill="#000000">move_racon_short</text>
</g>
<!-- 20&#45;&gt;3 -->
<g id="edge20" class="edge">
<title>20&#45;&gt;3</title>
<path fill="none" stroke="#c0c0c0" stroke-width="2" d="M2119.4572,-143.8314C2103.3209,-134.5368 2083.5014,-123.1208 2066.2728,-113.1971"/>
<polygon fill="#c0c0c0" stroke="#c0c0c0" stroke-width="2" points="2067.945,-110.1212 2057.5327,-108.1628 2064.4511,-116.187 2067.945,-110.1212"/>
</g>
<!-- 20&#45;&gt;4 -->
<g id="edge39" class="edge">
<title>20&#45;&gt;4</title>
<path fill="none" stroke="#c0c0c0" stroke-width="2" d="M2097.2118,-145.8589C2094.1094,-145.1695 2091.0231,-144.5418 2088,-144 1958.8337,-120.8532 1554.0756,-98.7563 1423.2374,-92.0571"/>
<polygon fill="#c0c0c0" stroke="#c0c0c0" stroke-width="2" points="1423.0296,-88.542 1412.8645,-91.5289 1422.6736,-95.533 1423.0296,-88.542"/>
</g>
<!-- 21 -->
<g id="node22" class="node">
<title>21</title>
<path fill="none" stroke="#d85656" stroke-width="2" stroke-dasharray="5,2" d="M2317.5,-180C2317.5,-180 2234.5,-180 2234.5,-180 2228.5,-180 2222.5,-174 2222.5,-168 2222.5,-168 2222.5,-156 2222.5,-156 2222.5,-150 2228.5,-144 2234.5,-144 2234.5,-144 2317.5,-144 2317.5,-144 2323.5,-144 2329.5,-150 2329.5,-156 2329.5,-156 2329.5,-168 2329.5,-168 2329.5,-174 2323.5,-180 2317.5,-180"/>
<text text-anchor="middle" x="2276" y="-159.5" font-family="sans" font-size="10.00" fill="#000000">move_racon_short</text>
</g>
<!-- 21&#45;&gt;3 -->
<g id="edge21" class="edge">
<title>21&#45;&gt;3</title>
<path fill="none" stroke="#c0c0c0" stroke-width="2" d="M2222.3687,-146.5542C2178.5366,-133.9305 2117.0972,-116.236 2074.6691,-104.0167"/>
<polygon fill="#c0c0c0" stroke="#c0c0c0" stroke-width="2" points="2075.4284,-100.5932 2064.8503,-101.1889 2073.491,-107.3198 2075.4284,-100.5932"/>
</g>
<!-- 21&#45;&gt;4 -->
<g id="edge37" class="edge">
<title>21&#45;&gt;4</title>
<path fill="none" stroke="#c0c0c0" stroke-width="2" d="M2222.2191,-145.8174C2219.1148,-145.1385 2216.0262,-144.5244 2213,-144 2058.3914,-117.2064 1568.5101,-97.0261 1423.0849,-91.5078"/>
<polygon fill="#c0c0c0" stroke="#c0c0c0" stroke-width="2" points="1422.9496,-88.0003 1412.8249,-91.1212 1422.6859,-94.9954 1422.9496,-88.0003"/>
</g>
<!-- 22 -->
<g id="node23" class="node">
<title>22</title>
<path fill="none" stroke="#d85656" stroke-width="2" stroke-dasharray="5,2" d="M2442.5,-180C2442.5,-180 2359.5,-180 2359.5,-180 2353.5,-180 2347.5,-174 2347.5,-168 2347.5,-168 2347.5,-156 2347.5,-156 2347.5,-150 2353.5,-144 2359.5,-144 2359.5,-144 2442.5,-144 2442.5,-144 2448.5,-144 2454.5,-150 2454.5,-156 2454.5,-156 2454.5,-168 2454.5,-168 2454.5,-174 2448.5,-180 2442.5,-180"/>
<text text-anchor="middle" x="2401" y="-159.5" font-family="sans" font-size="10.00" fill="#000000">move_racon_short</text>
</g>
<!-- 22&#45;&gt;3 -->
<g id="edge22" class="edge">
<title>22&#45;&gt;3</title>
<path fill="none" stroke="#c0c0c0" stroke-width="2" d="M2347.3278,-146.0199C2344.5188,-145.3083 2341.7304,-144.6298 2339,-144 2246.5555,-122.6764 2136.9969,-105.6245 2075.0812,-96.7336"/>
<polygon fill="#c0c0c0" stroke="#c0c0c0" stroke-width="2" points="2075.22,-93.2181 2064.8264,-95.2733 2074.2331,-100.1482 2075.22,-93.2181"/>
</g>
<!-- 22&#45;&gt;4 -->
<g id="edge40" class="edge">
<title>22&#45;&gt;4</title>
<path fill="none" stroke="#c0c0c0" stroke-width="2" d="M2347.4049,-145.6358C2344.5757,-145.0245 2341.7619,-144.4726 2339,-144 2158.615,-113.1358 1581.7673,-95.4456 1422.8646,-91.075"/>
<polygon fill="#c0c0c0" stroke="#c0c0c0" stroke-width="2" points="1422.6748,-87.5686 1412.5832,-90.7948 1422.4841,-94.566 1422.6748,-87.5686"/>
</g>
<!-- 23 -->
<g id="node24" class="node">
<title>23</title>
<path fill="none" stroke="#56d8d0" stroke-width="2" stroke-dasharray="5,2" d="M116,-257C116,-257 12,-257 12,-257 6,-257 0,-251 0,-245 0,-245 0,-228 0,-228 0,-222 6,-216 12,-216 12,-216 116,-216 116,-216 122,-216 128,-222 128,-228 128,-228 128,-245 128,-245 128,-251 122,-257 116,-257"/>
<text text-anchor="middle" x="64" y="-245" font-family="sans" font-size="10.00" fill="#000000">minimap2_racon_short</text>
<text text-anchor="middle" x="64" y="-234" font-family="sans" font-size="10.00" fill="#000000">assembler: canu</text>
<text text-anchor="middle" x="64" y="-223" font-family="sans" font-size="10.00" fill="#000000">demultiplex: porechop</text>
</g>
<!-- 23&#45;&gt;5 -->
<g id="edge41" class="edge">
<title>23&#45;&gt;5</title>
<path fill="none" stroke="#c0c0c0" stroke-width="2" d="M122.4911,-215.9453C151.2305,-205.8459 185.8446,-193.682 214.924,-183.463"/>
<polygon fill="#c0c0c0" stroke="#c0c0c0" stroke-width="2" points="216.2831,-186.6953 224.5571,-180.0778 213.9622,-180.0912 216.2831,-186.6953"/>
</g>
<!-- 24 -->
<g id="node25" class="node">
<title>24</title>
<path fill="none" stroke="#56d8d0" stroke-width="2" stroke-dasharray="5,2" d="M270,-257C270,-257 158,-257 158,-257 152,-257 146,-251 146,-245 146,-245 146,-228 146,-228 146,-222 152,-216 158,-216 158,-216 270,-216 270,-216 276,-216 282,-222 282,-228 282,-228 282,-245 282,-245 282,-251 276,-257 270,-257"/>
<text text-anchor="middle" x="214" y="-245" font-family="sans" font-size="10.00" fill="#000000">minimap2_racon_short</text>
<text text-anchor="middle" x="214" y="-234" font-family="sans" font-size="10.00" fill="#000000">assembler: canu</text>
<text text-anchor="middle" x="214" y="-223" font-family="sans" font-size="10.00" fill="#000000">demultiplex: deepbinner</text>
</g>
<!-- 24&#45;&gt;6 -->
<g id="edge42" class="edge">
<title>24&#45;&gt;6</title>
<path fill="none" stroke="#c0c0c0" stroke-width="2" d="M265.5936,-215.9453C290.6132,-205.9776 320.6805,-193.9989 346.1202,-183.8639"/>
<polygon fill="#c0c0c0" stroke="#c0c0c0" stroke-width="2" points="347.6289,-187.0304 355.6235,-180.0778 345.0382,-180.5275 347.6289,-187.0304"/>
</g>
<!-- 25 -->
<g id="node26" class="node">
<title>25</title>
<path fill="none" stroke="#56d8d0" stroke-width="2" stroke-dasharray="5,2" d="M416,-257C416,-257 312,-257 312,-257 306,-257 300,-251 300,-245 300,-245 300,-228 300,-228 300,-222 306,-216 312,-216 312,-216 416,-216 416,-216 422,-216 428,-222 428,-228 428,-228 428,-245 428,-245 428,-251 422,-257 416,-257"/>
<text text-anchor="middle" x="364" y="-245" font-family="sans" font-size="10.00" fill="#000000">minimap2_racon_short</text>
<text text-anchor="middle" x="364" y="-234" font-family="sans" font-size="10.00" fill="#000000">assembler: flye</text>
<text text-anchor="middle" x="364" y="-223" font-family="sans" font-size="10.00" fill="#000000">demultiplex: porechop</text>
</g>
<!-- 25&#45;&gt;7 -->
<g id="edge43" class="edge">
<title>25&#45;&gt;7</title>
<path fill="none" stroke="#c0c0c0" stroke-width="2" d="M408.696,-215.9453C430.0844,-206.1094 455.7307,-194.3152 477.5812,-184.2667"/>
<polygon fill="#c0c0c0" stroke="#c0c0c0" stroke-width="2" points="479.0669,-187.4359 486.6898,-180.0778 476.1421,-181.0761 479.0669,-187.4359"/>
</g>
<!-- 26 -->
<g id="node27" class="node">
<title>26</title>
<path fill="none" stroke="#56d8d0" stroke-width="2" stroke-dasharray="5,2" d="M570,-257C570,-257 458,-257 458,-257 452,-257 446,-251 446,-245 446,-245 446,-228 446,-228 446,-222 452,-216 458,-216 458,-216 570,-216 570,-216 576,-216 582,-222 582,-228 582,-228 582,-245 582,-245 582,-251 576,-257 570,-257"/>
<text text-anchor="middle" x="514" y="-245" font-family="sans" font-size="10.00" fill="#000000">minimap2_racon_short</text>
<text text-anchor="middle" x="514" y="-234" font-family="sans" font-size="10.00" fill="#000000">assembler: flye</text>
<text text-anchor="middle" x="514" y="-223" font-family="sans" font-size="10.00" fill="#000000">demultiplex: deepbinner</text>
</g>
<!-- 26&#45;&gt;8 -->
<g id="edge44" class="edge">
<title>26&#45;&gt;8</title>
<path fill="none" stroke="#c0c0c0" stroke-width="2" d="M551.7985,-215.9453C569.3342,-206.4095 590.2545,-195.0332 608.3529,-185.1913"/>
<polygon fill="#c0c0c0" stroke="#c0c0c0" stroke-width="2" points="610.4141,-188.0545 617.5271,-180.2024 607.07,-181.905 610.4141,-188.0545"/>
</g>
<!-- 27 -->
<g id="node28" class="node">
<title>27</title>
<path fill="none" stroke="#56d8d0" stroke-width="2" stroke-dasharray="5,2" d="M716,-257C716,-257 612,-257 612,-257 606,-257 600,-251 600,-245 600,-245 600,-228 600,-228 600,-222 606,-216 612,-216 612,-216 716,-216 716,-216 722,-216 728,-222 728,-228 728,-228 728,-245 728,-245 728,-251 722,-257 716,-257"/>
<text text-anchor="middle" x="664" y="-245" font-family="sans" font-size="10.00" fill="#000000">minimap2_racon_short</text>
<text text-anchor="middle" x="664" y="-234" font-family="sans" font-size="10.00" fill="#000000">assembler: wtdbg2</text>
<text text-anchor="middle" x="664" y="-223" font-family="sans" font-size="10.00" fill="#000000">demultiplex: porechop</text>
</g>
<!-- 27&#45;&gt;9 -->
<g id="edge45" class="edge">
<title>27&#45;&gt;9</title>
<path fill="none" stroke="#c0c0c0" stroke-width="2" d="M694.901,-215.9453C708.8422,-206.6719 725.4001,-195.658 739.9084,-186.0074"/>
<polygon fill="#c0c0c0" stroke="#c0c0c0" stroke-width="2" points="742.2475,-188.6551 748.6353,-180.2024 738.3706,-182.8267 742.2475,-188.6551"/>
</g>
<!-- 28 -->
<g id="node29" class="node">
<title>28</title>
<path fill="none" stroke="#56d8d0" stroke-width="2" stroke-dasharray="5,2" d="M870,-257C870,-257 758,-257 758,-257 752,-257 746,-251 746,-245 746,-245 746,-228 746,-228 746,-222 752,-216 758,-216 758,-216 870,-216 870,-216 876,-216 882,-222 882,-228 882,-228 882,-245 882,-245 882,-251 876,-257 870,-257"/>
<text text-anchor="middle" x="814" y="-245" font-family="sans" font-size="10.00" fill="#000000">minimap2_racon_short</text>
<text text-anchor="middle" x="814" y="-234" font-family="sans" font-size="10.00" fill="#000000">assembler: wtdbg2</text>
<text text-anchor="middle" x="814" y="-223" font-family="sans" font-size="10.00" fill="#000000">demultiplex: deepbinner</text>
</g>
<!-- 28&#45;&gt;10 -->
<g id="edge46" class="edge">
<title>28&#45;&gt;10</title>
<path fill="none" stroke="#c0c0c0" stroke-width="2" d="M838.2344,-215.7476C848.7536,-206.7398 861.1564,-196.119 872.1469,-186.7076"/>
<polygon fill="#c0c0c0" stroke="#c0c0c0" stroke-width="2" points="874.5338,-189.2715 879.853,-180.1087 869.9808,-183.9545 874.5338,-189.2715"/>
</g>
<!-- 29 -->
<g id="node30" class="node">
<title>29</title>
<path fill="none" stroke="#56d8d0" stroke-width="2" stroke-dasharray="5,2" d="M1016,-257C1016,-257 912,-257 912,-257 906,-257 900,-251 900,-245 900,-245 900,-228 900,-228 900,-222 906,-216 912,-216 912,-216 1016,-216 1016,-216 1022,-216 1028,-222 1028,-228 1028,-228 1028,-245 1028,-245 1028,-251 1022,-257 1016,-257"/>
<text text-anchor="middle" x="964" y="-245" font-family="sans" font-size="10.00" fill="#000000">minimap2_racon_short</text>
<text text-anchor="middle" x="964" y="-234" font-family="sans" font-size="10.00" fill="#000000">assembler: canu</text>
<text text-anchor="middle" x="964" y="-223" font-family="sans" font-size="10.00" fill="#000000">demultiplex: porechop</text>
</g>
<!-- 29&#45;&gt;11 -->
<g id="edge47" class="edge">
<title>29&#45;&gt;11</title>
<path fill="none" stroke="#c0c0c0" stroke-width="2" d="M981.2705,-215.7476C988.4758,-207.0896 996.9212,-196.9415 1004.5211,-187.8093"/>
<polygon fill="#c0c0c0" stroke="#c0c0c0" stroke-width="2" points="1007.2232,-190.034 1010.9297,-180.1087 1001.8426,-185.5562 1007.2232,-190.034"/>
</g>
<!-- 30 -->
<g id="node31" class="node">
<title>30</title>
<path fill="none" stroke="#56d8d0" stroke-width="2" stroke-dasharray="5,2" d="M1170,-257C1170,-257 1058,-257 1058,-257 1052,-257 1046,-251 1046,-245 1046,-245 1046,-228 1046,-228 1046,-222 1052,-216 1058,-216 1058,-216 1170,-216 1170,-216 1176,-216 1182,-222 1182,-228 1182,-228 1182,-245 1182,-245 1182,-251 1176,-257 1170,-257"/>
<text text-anchor="middle" x="1114" y="-245" font-family="sans" font-size="10.00" fill="#000000">minimap2_racon_short</text>
<text text-anchor="middle" x="1114" y="-234" font-family="sans" font-size="10.00" fill="#000000">assembler: canu</text>
<text text-anchor="middle" x="1114" y="-223" font-family="sans" font-size="10.00" fill="#000000">demultiplex: deepbinner</text>
</g>
<!-- 30&#45;&gt;12 -->
<g id="edge48" class="edge">
<title>30&#45;&gt;12</title>
<path fill="none" stroke="#c0c0c0" stroke-width="2" d="M1124.3066,-215.7476C1128.3893,-207.5269 1133.1393,-197.9627 1137.4911,-189.2004"/>
<polygon fill="#c0c0c0" stroke="#c0c0c0" stroke-width="2" points="1140.693,-190.6218 1142.0064,-180.1087 1134.4236,-187.5081 1140.693,-190.6218"/>
</g>
<!-- 31 -->
<g id="node32" class="node">
<title>31</title>
<path fill="none" stroke="#56d8d0" stroke-width="2" stroke-dasharray="5,2" d="M1316,-257C1316,-257 1212,-257 1212,-257 1206,-257 1200,-251 1200,-245 1200,-245 1200,-228 1200,-228 1200,-222 1206,-216 1212,-216 1212,-216 1316,-216 1316,-216 1322,-216 1328,-222 1328,-228 1328,-228 1328,-245 1328,-245 1328,-251 1322,-257 1316,-257"/>
<text text-anchor="middle" x="1264" y="-245" font-family="sans" font-size="10.00" fill="#000000">minimap2_racon_short</text>
<text text-anchor="middle" x="1264" y="-234" font-family="sans" font-size="10.00" fill="#000000">assembler: flye</text>
<text text-anchor="middle" x="1264" y="-223" font-family="sans" font-size="10.00" fill="#000000">demultiplex: porechop</text>
</g>
<!-- 31&#45;&gt;13 -->
<g id="edge49" class="edge">
<title>31&#45;&gt;13</title>
<path fill="none" stroke="#c0c0c0" stroke-width="2" d="M1267.3427,-215.7476C1268.6246,-207.7892 1270.1092,-198.5718 1271.4832,-190.0418"/>
<polygon fill="#c0c0c0" stroke="#c0c0c0" stroke-width="2" points="1274.9483,-190.538 1273.0832,-180.1087 1268.0374,-189.4248 1274.9483,-190.538"/>
</g>
<!-- 32 -->
<g id="node33" class="node">
<title>32</title>
<path fill="none" stroke="#56d8d0" stroke-width="2" stroke-dasharray="5,2" d="M1470,-257C1470,-257 1358,-257 1358,-257 1352,-257 1346,-251 1346,-245 1346,-245 1346,-228 1346,-228 1346,-222 1352,-216 1358,-216 1358,-216 1470,-216 1470,-216 1476,-216 1482,-222 1482,-228 1482,-228 1482,-245 1482,-245 1482,-251 1476,-257 1470,-257"/>
<text text-anchor="middle" x="1414" y="-245" font-family="sans" font-size="10.00" fill="#000000">minimap2_racon_short</text>
<text text-anchor="middle" x="1414" y="-234" font-family="sans" font-size="10.00" fill="#000000">assembler: flye</text>
<text text-anchor="middle" x="1414" y="-223" font-family="sans" font-size="10.00" fill="#000000">demultiplex: deepbinner</text>
</g>
<!-- 32&#45;&gt;14 -->
<g id="edge50" class="edge">
<title>32&#45;&gt;14</title>
<path fill="none" stroke="#c0c0c0" stroke-width="2" d="M1410.3788,-215.7476C1408.9901,-207.7892 1407.3817,-198.5718 1405.8932,-190.0418"/>
<polygon fill="#c0c0c0" stroke="#c0c0c0" stroke-width="2" points="1409.3269,-189.3581 1404.1599,-180.1087 1402.4311,-190.5615 1409.3269,-189.3581"/>
</g>
<!-- 33 -->
<g id="node34" class="node">
<title>33</title>
<path fill="none" stroke="#56d8d0" stroke-width="2" stroke-dasharray="5,2" d="M1616,-257C1616,-257 1512,-257 1512,-257 1506,-257 1500,-251 1500,-245 1500,-245 1500,-228 1500,-228 1500,-222 1506,-216 1512,-216 1512,-216 1616,-216 1616,-216 1622,-216 1628,-222 1628,-228 1628,-228 1628,-245 1628,-245 1628,-251 1622,-257 1616,-257"/>
<text text-anchor="middle" x="1564" y="-245" font-family="sans" font-size="10.00" fill="#000000">minimap2_racon_short</text>
<text text-anchor="middle" x="1564" y="-234" font-family="sans" font-size="10.00" fill="#000000">assembler: wtdbg2</text>
<text text-anchor="middle" x="1564" y="-223" font-family="sans" font-size="10.00" fill="#000000">demultiplex: porechop</text>
</g>
<!-- 33&#45;&gt;15 -->
<g id="edge51" class="edge">
<title>33&#45;&gt;15</title>
<path fill="none" stroke="#c0c0c0" stroke-width="2" d="M1553.4149,-215.7476C1549.2218,-207.5269 1544.3434,-197.9627 1539.8741,-189.2004"/>
<polygon fill="#c0c0c0" stroke="#c0c0c0" stroke-width="2" points="1542.8983,-187.4265 1535.2366,-180.1087 1536.6626,-190.6071 1542.8983,-187.4265"/>
</g>
<!-- 34 -->
<g id="node35" class="node">
<title>34</title>
<path fill="none" stroke="#56d8d0" stroke-width="2" stroke-dasharray="5,2" d="M1770,-257C1770,-257 1658,-257 1658,-257 1652,-257 1646,-251 1646,-245 1646,-245 1646,-228 1646,-228 1646,-222 1652,-216 1658,-216 1658,-216 1770,-216 1770,-216 1776,-216 1782,-222 1782,-228 1782,-228 1782,-245 1782,-245 1782,-251 1776,-257 1770,-257"/>
<text text-anchor="middle" x="1714" y="-245" font-family="sans" font-size="10.00" fill="#000000">minimap2_racon_short</text>
<text text-anchor="middle" x="1714" y="-234" font-family="sans" font-size="10.00" fill="#000000">assembler: wtdbg2</text>
<text text-anchor="middle" x="1714" y="-223" font-family="sans" font-size="10.00" fill="#000000">demultiplex: deepbinner</text>
</g>
<!-- 34&#45;&gt;16 -->
<g id="edge52" class="edge">
<title>34&#45;&gt;16</title>
<path fill="none" stroke="#c0c0c0" stroke-width="2" d="M1696.451,-215.7476C1689.1295,-207.0896 1680.5478,-196.9415 1672.8253,-187.8093"/>
<polygon fill="#c0c0c0" stroke="#c0c0c0" stroke-width="2" points="1675.4431,-185.4845 1666.3134,-180.1087 1670.098,-190.0045 1675.4431,-185.4845"/>
</g>
<!-- 35 -->
<g id="node36" class="node">
<title>35</title>
<path fill="none" stroke="#56d8d0" stroke-width="2" stroke-dasharray="5,2" d="M1916,-257C1916,-257 1812,-257 1812,-257 1806,-257 1800,-251 1800,-245 1800,-245 1800,-228 1800,-228 1800,-222 1806,-216 1812,-216 1812,-216 1916,-216 1916,-216 1922,-216 1928,-222 1928,-228 1928,-228 1928,-245 1928,-245 1928,-251 1922,-257 1916,-257"/>
<text text-anchor="middle" x="1864" y="-245" font-family="sans" font-size="10.00" fill="#000000">minimap2_racon_short</text>
<text text-anchor="middle" x="1864" y="-234" font-family="sans" font-size="10.00" fill="#000000">assembler: canu</text>
<text text-anchor="middle" x="1864" y="-223" font-family="sans" font-size="10.00" fill="#000000">demultiplex: porechop</text>
</g>
<!-- 35&#45;&gt;17 -->
<g id="edge53" class="edge">
<title>35&#45;&gt;17</title>
<path fill="none" stroke="#c0c0c0" stroke-width="2" d="M1839.4871,-215.7476C1828.847,-206.7398 1816.3016,-196.119 1805.1848,-186.7076"/>
<polygon fill="#c0c0c0" stroke="#c0c0c0" stroke-width="2" points="1807.2838,-183.8988 1797.3901,-180.1087 1802.7609,-189.2414 1807.2838,-183.8988"/>
</g>
<!-- 36 -->
<g id="node37" class="node">
<title>36</title>
<path fill="none" stroke="#56d8d0" stroke-width="2" stroke-dasharray="5,2" d="M2070,-257C2070,-257 1958,-257 1958,-257 1952,-257 1946,-251 1946,-245 1946,-245 1946,-228 1946,-228 1946,-222 1952,-216 1958,-216 1958,-216 2070,-216 2070,-216 2076,-216 2082,-222 2082,-228 2082,-228 2082,-245 2082,-245 2082,-251 2076,-257 2070,-257"/>
<text text-anchor="middle" x="2014" y="-245" font-family="sans" font-size="10.00" fill="#000000">minimap2_racon_short</text>
<text text-anchor="middle" x="2014" y="-234" font-family="sans" font-size="10.00" fill="#000000">assembler: canu</text>
<text text-anchor="middle" x="2014" y="-223" font-family="sans" font-size="10.00" fill="#000000">demultiplex: deepbinner</text>
</g>
<!-- 36&#45;&gt;18 -->
<g id="edge54" class="edge">
<title>36&#45;&gt;18</title>
<path fill="none" stroke="#c0c0c0" stroke-width="2" d="M1982.8231,-215.9453C1968.6248,-206.5845 1951.7363,-195.45 1937.0001,-185.7346"/>
<polygon fill="#c0c0c0" stroke="#c0c0c0" stroke-width="2" points="1938.8844,-182.7847 1928.609,-180.2024 1935.0313,-188.6288 1938.8844,-182.7847"/>
</g>
<!-- 37 -->
<g id="node38" class="node">
<title>37</title>
<path fill="none" stroke="#56d8d0" stroke-width="2" stroke-dasharray="5,2" d="M2216,-257C2216,-257 2112,-257 2112,-257 2106,-257 2100,-251 2100,-245 2100,-245 2100,-228 2100,-228 2100,-222 2106,-216 2112,-216 2112,-216 2216,-216 2216,-216 2222,-216 2228,-222 2228,-228 2228,-228 2228,-245 2228,-245 2228,-251 2222,-257 2216,-257"/>
<text text-anchor="middle" x="2164" y="-245" font-family="sans" font-size="10.00" fill="#000000">minimap2_racon_short</text>
<text text-anchor="middle" x="2164" y="-234" font-family="sans" font-size="10.00" fill="#000000">assembler: flye</text>
<text text-anchor="middle" x="2164" y="-223" font-family="sans" font-size="10.00" fill="#000000">demultiplex: porechop</text>
</g>
<!-- 37&#45;&gt;19 -->
<g id="edge55" class="edge">
<title>37&#45;&gt;19</title>
<path fill="none" stroke="#c0c0c0" stroke-width="2" d="M2125.9256,-215.9453C2108.1808,-206.3657 2086.9955,-194.9287 2068.7077,-185.056"/>
<polygon fill="#c0c0c0" stroke="#c0c0c0" stroke-width="2" points="2070.1795,-181.8731 2059.7172,-180.2024 2066.8541,-188.0328 2070.1795,-181.8731"/>
</g>
<!-- 38 -->
<g id="node39" class="node">
<title>38</title>
<path fill="none" stroke="#56d8d0" stroke-width="2" stroke-dasharray="5,2" d="M2370,-257C2370,-257 2258,-257 2258,-257 2252,-257 2246,-251 2246,-245 2246,-245 2246,-228 2246,-228 2246,-222 2252,-216 2258,-216 2258,-216 2370,-216 2370,-216 2376,-216 2382,-222 2382,-228 2382,-228 2382,-245 2382,-245 2382,-251 2376,-257 2370,-257"/>
<text text-anchor="middle" x="2314" y="-245" font-family="sans" font-size="10.00" fill="#000000">minimap2_racon_short</text>
<text text-anchor="middle" x="2314" y="-234" font-family="sans" font-size="10.00" fill="#000000">assembler: flye</text>
<text text-anchor="middle" x="2314" y="-223" font-family="sans" font-size="10.00" fill="#000000">demultiplex: deepbinner</text>
</g>
<!-- 38&#45;&gt;20 -->
<g id="edge56" class="edge">
<title>38&#45;&gt;20</title>
<path fill="none" stroke="#c0c0c0" stroke-width="2" d="M2269.028,-215.9453C2247.5077,-206.1094 2221.703,-194.3152 2199.7177,-184.2667"/>
<polygon fill="#c0c0c0" stroke="#c0c0c0" stroke-width="2" points="2201.1028,-181.0515 2190.5528,-180.0778 2198.1929,-187.4181 2201.1028,-181.0515"/>
</g>
<!-- 39 -->
<g id="node40" class="node">
<title>39</title>
<path fill="none" stroke="#56d8d0" stroke-width="2" stroke-dasharray="5,2" d="M2516,-257C2516,-257 2412,-257 2412,-257 2406,-257 2400,-251 2400,-245 2400,-245 2400,-228 2400,-228 2400,-222 2406,-216 2412,-216 2412,-216 2516,-216 2516,-216 2522,-216 2528,-222 2528,-228 2528,-228 2528,-245 2528,-245 2528,-251 2522,-257 2516,-257"/>
<text text-anchor="middle" x="2464" y="-245" font-family="sans" font-size="10.00" fill="#000000">minimap2_racon_short</text>
<text text-anchor="middle" x="2464" y="-234" font-family="sans" font-size="10.00" fill="#000000">assembler: wtdbg2</text>
<text text-anchor="middle" x="2464" y="-223" font-family="sans" font-size="10.00" fill="#000000">demultiplex: porechop</text>
</g>
<!-- 39&#45;&gt;21 -->
<g id="edge57" class="edge">
<title>39&#45;&gt;21</title>
<path fill="none" stroke="#c0c0c0" stroke-width="2" d="M2412.1305,-215.9453C2386.9771,-205.9776 2356.749,-193.9989 2331.1733,-183.8639"/>
<polygon fill="#c0c0c0" stroke="#c0c0c0" stroke-width="2" points="2332.2053,-180.5081 2321.6192,-180.0778 2329.6264,-187.0158 2332.2053,-180.5081"/>
</g>
<!-- 40 -->
<g id="node41" class="node">
<title>40</title>
<path fill="none" stroke="#56d8d0" stroke-width="2" stroke-dasharray="5,2" d="M2670,-257C2670,-257 2558,-257 2558,-257 2552,-257 2546,-251 2546,-245 2546,-245 2546,-228 2546,-228 2546,-222 2552,-216 2558,-216 2558,-216 2670,-216 2670,-216 2676,-216 2682,-222 2682,-228 2682,-228 2682,-245 2682,-245 2682,-251 2676,-257 2670,-257"/>
<text text-anchor="middle" x="2614" y="-245" font-family="sans" font-size="10.00" fill="#000000">minimap2_racon_short</text>
<text text-anchor="middle" x="2614" y="-234" font-family="sans" font-size="10.00" fill="#000000">assembler: wtdbg2</text>
<text text-anchor="middle" x="2614" y="-223" font-family="sans" font-size="10.00" fill="#000000">demultiplex: deepbinner</text>
</g>
<!-- 40&#45;&gt;22 -->
<g id="edge58" class="edge">
<title>40&#45;&gt;22</title>
<path fill="none" stroke="#c0c0c0" stroke-width="2" d="M2555.233,-215.9453C2526.358,-205.8459 2491.5806,-193.682 2462.3641,-183.463"/>
<polygon fill="#c0c0c0" stroke="#c0c0c0" stroke-width="2" points="2463.2804,-180.0757 2452.6856,-180.0778 2460.9693,-186.6832 2463.2804,-180.0757"/>
</g>
<!-- 41 -->
<g id="node42" class="node">
<title>41</title>
<path fill="none" stroke="#88d856" stroke-width="2" stroke-dasharray="5,2" d="M470.5,-329C470.5,-329 407.5,-329 407.5,-329 401.5,-329 395.5,-323 395.5,-317 395.5,-317 395.5,-305 395.5,-305 395.5,-299 401.5,-293 407.5,-293 407.5,-293 470.5,-293 470.5,-293 476.5,-293 482.5,-299 482.5,-305 482.5,-305 482.5,-317 482.5,-317 482.5,-323 476.5,-329 470.5,-329"/>
<text text-anchor="middle" x="439" y="-308.5" font-family="sans" font-size="10.00" fill="#000000">unique_readID</text>
</g>
<!-- 41&#45;&gt;23 -->
<g id="edge59" class="edge">
<title>41&#45;&gt;23</title>
<path fill="none" stroke="#c0c0c0" stroke-width="2" d="M395.4737,-304.5739C338.4977,-295.864 235.3786,-279.0793 138.0132,-257.1314"/>
<polygon fill="#c0c0c0" stroke="#c0c0c0" stroke-width="2" points="138.5317,-253.66 128.0041,-254.852 136.9773,-260.4852 138.5317,-253.66"/>
</g>
<!-- 41&#45;&gt;24 -->
<g id="edge60" class="edge">
<title>41&#45;&gt;24</title>
<path fill="none" stroke="#c0c0c0" stroke-width="2" d="M395.351,-296.5473C364.3955,-286.2976 322.1396,-272.3062 286.2043,-260.4076"/>
<polygon fill="#c0c0c0" stroke="#c0c0c0" stroke-width="2" points="286.8442,-256.9327 276.2509,-257.112 284.6439,-263.5779 286.8442,-256.9327"/>
</g>
<!-- 41&#45;&gt;25 -->
<g id="edge61" class="edge">
<title>41&#45;&gt;25</title>
<path fill="none" stroke="#c0c0c0" stroke-width="2" d="M420.8446,-292.9656C412.208,-284.3866 401.6862,-273.9349 392.0538,-264.3668"/>
<polygon fill="#c0c0c0" stroke="#c0c0c0" stroke-width="2" points="394.4686,-261.8321 384.9073,-257.2679 389.5354,-266.7984 394.4686,-261.8321"/>
</g>
<!-- 41&#45;&gt;26 -->
<g id="edge62" class="edge">
<title>41&#45;&gt;26</title>
<path fill="none" stroke="#c0c0c0" stroke-width="2" d="M457.1554,-292.9656C465.792,-284.3866 476.3138,-273.9349 485.9462,-264.3668"/>
<polygon fill="#c0c0c0" stroke="#c0c0c0" stroke-width="2" points="488.4646,-266.7984 493.0927,-257.2679 483.5314,-261.8321 488.4646,-266.7984"/>
</g>
<!-- 41&#45;&gt;27 -->
<g id="edge63" class="edge">
<title>41&#45;&gt;27</title>
<path fill="none" stroke="#c0c0c0" stroke-width="2" d="M482.649,-296.5473C513.6045,-286.2976 555.8604,-272.3062 591.7957,-260.4076"/>
<polygon fill="#c0c0c0" stroke="#c0c0c0" stroke-width="2" points="593.3561,-263.5779 601.7491,-257.112 591.1558,-256.9327 593.3561,-263.5779"/>
</g>
<!-- 41&#45;&gt;28 -->
<g id="edge64" class="edge">
<title>41&#45;&gt;28</title>
<path fill="none" stroke="#c0c0c0" stroke-width="2" d="M482.6513,-304.2263C538.9831,-295.2345 640.1948,-278.2329 735.8077,-257.1902"/>
<polygon fill="#c0c0c0" stroke="#c0c0c0" stroke-width="2" points="736.6332,-260.5923 745.6369,-255.008 735.116,-253.7586 736.6332,-260.5923"/>
</g>
<!-- 42 -->
<g id="node43" class="node">
<title>42</title>
<path fill="none" stroke="#88d856" stroke-width="2" stroke-dasharray="5,2" d="M1370.5,-329C1370.5,-329 1307.5,-329 1307.5,-329 1301.5,-329 1295.5,-323 1295.5,-317 1295.5,-317 1295.5,-305 1295.5,-305 1295.5,-299 1301.5,-293 1307.5,-293 1307.5,-293 1370.5,-293 1370.5,-293 1376.5,-293 1382.5,-299 1382.5,-305 1382.5,-305 1382.5,-317 1382.5,-317 1382.5,-323 1376.5,-329 1370.5,-329"/>
<text text-anchor="middle" x="1339" y="-308.5" font-family="sans" font-size="10.00" fill="#000000">unique_readID</text>
</g>
<!-- 42&#45;&gt;29 -->
<g id="edge65" class="edge">
<title>42&#45;&gt;29</title>
<path fill="none" stroke="#c0c0c0" stroke-width="2" d="M1295.4737,-304.5739C1238.4977,-295.864 1135.3786,-279.0793 1038.0132,-257.1314"/>
<polygon fill="#c0c0c0" stroke="#c0c0c0" stroke-width="2" points="1038.5317,-253.66 1028.0041,-254.852 1036.9773,-260.4852 1038.5317,-253.66"/>
</g>
<!-- 42&#45;&gt;30 -->
<g id="edge66" class="edge">
<title>42&#45;&gt;30</title>
<path fill="none" stroke="#c0c0c0" stroke-width="2" d="M1295.351,-296.5473C1264.3955,-286.2976 1222.1396,-272.3062 1186.2043,-260.4076"/>
<polygon fill="#c0c0c0" stroke="#c0c0c0" stroke-width="2" points="1186.8442,-256.9327 1176.2509,-257.112 1184.6439,-263.5779 1186.8442,-256.9327"/>
</g>
<!-- 42&#45;&gt;31 -->
<g id="edge67" class="edge">
<title>42&#45;&gt;31</title>
<path fill="none" stroke="#c0c0c0" stroke-width="2" d="M1320.8446,-292.9656C1312.208,-284.3866 1301.6862,-273.9349 1292.0538,-264.3668"/>
<polygon fill="#c0c0c0" stroke="#c0c0c0" stroke-width="2" points="1294.4686,-261.8321 1284.9073,-257.2679 1289.5354,-266.7984 1294.4686,-261.8321"/>
</g>
<!-- 42&#45;&gt;32 -->
<g id="edge68" class="edge">
<title>42&#45;&gt;32</title>
<path fill="none" stroke="#c0c0c0" stroke-width="2" d="M1357.1554,-292.9656C1365.792,-284.3866 1376.3138,-273.9349 1385.9462,-264.3668"/>
<polygon fill="#c0c0c0" stroke="#c0c0c0" stroke-width="2" points="1388.4646,-266.7984 1393.0927,-257.2679 1383.5314,-261.8321 1388.4646,-266.7984"/>
</g>
<!-- 42&#45;&gt;33 -->
<g id="edge69" class="edge">
<title>42&#45;&gt;33</title>
<path fill="none" stroke="#c0c0c0" stroke-width="2" d="M1382.649,-296.5473C1413.6045,-286.2976 1455.8604,-272.3062 1491.7957,-260.4076"/>
<polygon fill="#c0c0c0" stroke="#c0c0c0" stroke-width="2" points="1493.3561,-263.5779 1501.7491,-257.112 1491.1558,-256.9327 1493.3561,-263.5779"/>
</g>
<!-- 42&#45;&gt;34 -->
<g id="edge70" class="edge">
<title>42&#45;&gt;34</title>
<path fill="none" stroke="#c0c0c0" stroke-width="2" d="M1382.6513,-304.2263C1438.9831,-295.2345 1540.1948,-278.2329 1635.8077,-257.1902"/>
<polygon fill="#c0c0c0" stroke="#c0c0c0" stroke-width="2" points="1636.6332,-260.5923 1645.6369,-255.008 1635.116,-253.7586 1636.6332,-260.5923"/>
</g>
<!-- 43 -->
<g id="node44" class="node">
<title>43</title>
<path fill="none" stroke="#88d856" stroke-width="2" stroke-dasharray="5,2" d="M2270.5,-329C2270.5,-329 2207.5,-329 2207.5,-329 2201.5,-329 2195.5,-323 2195.5,-317 2195.5,-317 2195.5,-305 2195.5,-305 2195.5,-299 2201.5,-293 2207.5,-293 2207.5,-293 2270.5,-293 2270.5,-293 2276.5,-293 2282.5,-299 2282.5,-305 2282.5,-305 2282.5,-317 2282.5,-317 2282.5,-323 2276.5,-329 2270.5,-329"/>
<text text-anchor="middle" x="2239" y="-308.5" font-family="sans" font-size="10.00" fill="#000000">unique_readID</text>
</g>
<!-- 43&#45;&gt;35 -->
<g id="edge71" class="edge">
<title>43&#45;&gt;35</title>
<path fill="none" stroke="#c0c0c0" stroke-width="2" d="M2195.4737,-304.5739C2138.4977,-295.864 2035.3786,-279.0793 1938.0132,-257.1314"/>
<polygon fill="#c0c0c0" stroke="#c0c0c0" stroke-width="2" points="1938.5317,-253.66 1928.0041,-254.852 1936.9773,-260.4852 1938.5317,-253.66"/>
</g>
<!-- 43&#45;&gt;36 -->
<g id="edge72" class="edge">
<title>43&#45;&gt;36</title>
<path fill="none" stroke="#c0c0c0" stroke-width="2" d="M2195.351,-296.5473C2164.3955,-286.2976 2122.1396,-272.3062 2086.2043,-260.4076"/>
<polygon fill="#c0c0c0" stroke="#c0c0c0" stroke-width="2" points="2086.8442,-256.9327 2076.2509,-257.112 2084.6439,-263.5779 2086.8442,-256.9327"/>
</g>
<!-- 43&#45;&gt;37 -->
<g id="edge73" class="edge">
<title>43&#45;&gt;37</title>
<path fill="none" stroke="#c0c0c0" stroke-width="2" d="M2220.8446,-292.9656C2212.208,-284.3866 2201.6862,-273.9349 2192.0538,-264.3668"/>
<polygon fill="#c0c0c0" stroke="#c0c0c0" stroke-width="2" points="2194.4686,-261.8321 2184.9073,-257.2679 2189.5354,-266.7984 2194.4686,-261.8321"/>
</g>
<!-- 43&#45;&gt;38 -->
<g id="edge74" class="edge">
<title>43&#45;&gt;38</title>
<path fill="none" stroke="#c0c0c0" stroke-width="2" d="M2257.1554,-292.9656C2265.792,-284.3866 2276.3138,-273.9349 2285.9462,-264.3668"/>
<polygon fill="#c0c0c0" stroke="#c0c0c0" stroke-width="2" points="2288.4646,-266.7984 2293.0927,-257.2679 2283.5314,-261.8321 2288.4646,-266.7984"/>
</g>
<!-- 43&#45;&gt;39 -->
<g id="edge75" class="edge">
<title>43&#45;&gt;39</title>
<path fill="none" stroke="#c0c0c0" stroke-width="2" d="M2282.649,-296.5473C2313.6045,-286.2976 2355.8604,-272.3062 2391.7957,-260.4076"/>
<polygon fill="#c0c0c0" stroke="#c0c0c0" stroke-width="2" points="2393.3561,-263.5779 2401.7491,-257.112 2391.1558,-256.9327 2393.3561,-263.5779"/>
</g>
<!-- 43&#45;&gt;40 -->
<g id="edge76" class="edge">
<title>43&#45;&gt;40</title>
<path fill="none" stroke="#c0c0c0" stroke-width="2" d="M2282.6513,-304.2263C2338.9831,-295.2345 2440.1948,-278.2329 2535.8077,-257.1902"/>
<polygon fill="#c0c0c0" stroke="#c0c0c0" stroke-width="2" points="2536.6332,-260.5923 2545.6369,-255.008 2535.116,-253.7586 2536.6332,-260.5923"/>
</g>
<!-- 44 -->
<g id="node45" class="node">
<title>44</title>
<path fill="none" stroke="#567bd8" stroke-width="2" stroke-dasharray="5,2" d="M466.5,-401C466.5,-401 411.5,-401 411.5,-401 405.5,-401 399.5,-395 399.5,-389 399.5,-389 399.5,-377 399.5,-377 399.5,-371 405.5,-365 411.5,-365 411.5,-365 466.5,-365 466.5,-365 472.5,-365 478.5,-371 478.5,-377 478.5,-377 478.5,-389 478.5,-389 478.5,-395 472.5,-401 466.5,-401"/>
<text text-anchor="middle" x="439" y="-380.5" font-family="sans" font-size="10.00" fill="#000000">gunzip_short</text>
</g>
<!-- 44&#45;&gt;41 -->
<g id="edge77" class="edge">
<title>44&#45;&gt;41</title>
<path fill="none" stroke="#c0c0c0" stroke-width="2" d="M439,-364.8314C439,-357.131 439,-347.9743 439,-339.4166"/>
<polygon fill="#c0c0c0" stroke="#c0c0c0" stroke-width="2" points="442.5001,-339.4132 439,-329.4133 435.5001,-339.4133 442.5001,-339.4132"/>
</g>
<!-- 45 -->
<g id="node46" class="node">
<title>45</title>
<path fill="none" stroke="#567bd8" stroke-width="2" stroke-dasharray="5,2" d="M1366.5,-401C1366.5,-401 1311.5,-401 1311.5,-401 1305.5,-401 1299.5,-395 1299.5,-389 1299.5,-389 1299.5,-377 1299.5,-377 1299.5,-371 1305.5,-365 1311.5,-365 1311.5,-365 1366.5,-365 1366.5,-365 1372.5,-365 1378.5,-371 1378.5,-377 1378.5,-377 1378.5,-389 1378.5,-389 1378.5,-395 1372.5,-401 1366.5,-401"/>
<text text-anchor="middle" x="1339" y="-380.5" font-family="sans" font-size="10.00" fill="#000000">gunzip_short</text>
</g>
<!-- 45&#45;&gt;42 -->
<g id="edge78" class="edge">
<title>45&#45;&gt;42</title>
<path fill="none" stroke="#c0c0c0" stroke-width="2" d="M1339,-364.8314C1339,-357.131 1339,-347.9743 1339,-339.4166"/>
<polygon fill="#c0c0c0" stroke="#c0c0c0" stroke-width="2" points="1342.5001,-339.4132 1339,-329.4133 1335.5001,-339.4133 1342.5001,-339.4132"/>
</g>
<!-- 46 -->
<g id="node47" class="node">
<title>46</title>
<path fill="none" stroke="#567bd8" stroke-width="2" stroke-dasharray="5,2" d="M2266.5,-401C2266.5,-401 2211.5,-401 2211.5,-401 2205.5,-401 2199.5,-395 2199.5,-389 2199.5,-389 2199.5,-377 2199.5,-377 2199.5,-371 2205.5,-365 2211.5,-365 2211.5,-365 2266.5,-365 2266.5,-365 2272.5,-365 2278.5,-371 2278.5,-377 2278.5,-377 2278.5,-389 2278.5,-389 2278.5,-395 2272.5,-401 2266.5,-401"/>
<text text-anchor="middle" x="2239" y="-380.5" font-family="sans" font-size="10.00" fill="#000000">gunzip_short</text>
</g>
<!-- 46&#45;&gt;43 -->
<g id="edge79" class="edge">
<title>46&#45;&gt;43</title>
<path fill="none" stroke="#c0c0c0" stroke-width="2" d="M2239,-364.8314C2239,-357.131 2239,-347.9743 2239,-339.4166"/>
<polygon fill="#c0c0c0" stroke="#c0c0c0" stroke-width="2" points="2242.5001,-339.4132 2239,-329.4133 2235.5001,-339.4133 2242.5001,-339.4132"/>
</g>
<!-- 47 -->
<g id="node48" class="node">
<title>47</title>
<path fill="none" stroke="#569ad8" stroke-width="2" stroke-dasharray="5,2" d="M576.5,-478C576.5,-478 301.5,-478 301.5,-478 295.5,-478 289.5,-472 289.5,-466 289.5,-466 289.5,-449 289.5,-449 289.5,-443 295.5,-437 301.5,-437 301.5,-437 576.5,-437 576.5,-437 582.5,-437 588.5,-443 588.5,-449 588.5,-449 588.5,-466 588.5,-466 588.5,-472 582.5,-478 576.5,-478"/>
<text text-anchor="middle" x="439" y="-466" font-family="sans" font-size="10.00" fill="#000000">concat_short</text>
<text text-anchor="middle" x="439" y="-455" font-family="sans" font-size="10.00" fill="#000000">path: /mnt/prostlocal2/projects/st_mycoplasma_assembly</text>
<text text-anchor="middle" x="439" y="-444" font-family="sans" font-size="10.00" fill="#000000">strain: 15DD0163</text>
</g>
<!-- 47&#45;&gt;44 -->
<g id="edge80" class="edge">
<title>47&#45;&gt;44</title>
<path fill="none" stroke="#c0c0c0" stroke-width="2" d="M439,-436.7476C439,-428.8767 439,-419.7743 439,-411.3232"/>
<polygon fill="#c0c0c0" stroke="#c0c0c0" stroke-width="2" points="442.5001,-411.1086 439,-401.1087 435.5001,-411.1087 442.5001,-411.1086"/>
</g>
<!-- 48 -->
<g id="node49" class="node">
<title>48</title>
<path fill="none" stroke="#569ad8" stroke-width="2" stroke-dasharray="5,2" d="M1476.5,-478C1476.5,-478 1201.5,-478 1201.5,-478 1195.5,-478 1189.5,-472 1189.5,-466 1189.5,-466 1189.5,-449 1189.5,-449 1189.5,-443 1195.5,-437 1201.5,-437 1201.5,-437 1476.5,-437 1476.5,-437 1482.5,-437 1488.5,-443 1488.5,-449 1488.5,-449 1488.5,-466 1488.5,-466 1488.5,-472 1482.5,-478 1476.5,-478"/>
<text text-anchor="middle" x="1339" y="-466" font-family="sans" font-size="10.00" fill="#000000">concat_short</text>
<text text-anchor="middle" x="1339" y="-455" font-family="sans" font-size="10.00" fill="#000000">path: /mnt/prostlocal2/projects/st_mycoplasma_assembly</text>
<text text-anchor="middle" x="1339" y="-444" font-family="sans" font-size="10.00" fill="#000000">strain: 17DD0007</text>
</g>
<!-- 48&#45;&gt;45 -->
<g id="edge81" class="edge">
<title>48&#45;&gt;45</title>
<path fill="none" stroke="#c0c0c0" stroke-width="2" d="M1339,-436.7476C1339,-428.8767 1339,-419.7743 1339,-411.3232"/>
<polygon fill="#c0c0c0" stroke="#c0c0c0" stroke-width="2" points="1342.5001,-411.1086 1339,-401.1087 1335.5001,-411.1087 1342.5001,-411.1086"/>
</g>
<!-- 49 -->
<g id="node50" class="node">
<title>49</title>
<path fill="none" stroke="#569ad8" stroke-width="2" stroke-dasharray="5,2" d="M2376.5,-478C2376.5,-478 2101.5,-478 2101.5,-478 2095.5,-478 2089.5,-472 2089.5,-466 2089.5,-466 2089.5,-449 2089.5,-449 2089.5,-443 2095.5,-437 2101.5,-437 2101.5,-437 2376.5,-437 2376.5,-437 2382.5,-437 2388.5,-443 2388.5,-449 2388.5,-449 2388.5,-466 2388.5,-466 2388.5,-472 2382.5,-478 2376.5,-478"/>
<text text-anchor="middle" x="2239" y="-466" font-family="sans" font-size="10.00" fill="#000000">concat_short</text>
<text text-anchor="middle" x="2239" y="-455" font-family="sans" font-size="10.00" fill="#000000">path: /mnt/prostlocal2/projects/st_mycoplasma_assembly</text>
<text text-anchor="middle" x="2239" y="-444" font-family="sans" font-size="10.00" fill="#000000">strain: 17DD0020</text>
</g>
<!-- 49&#45;&gt;46 -->
<g id="edge82" class="edge">
<title>49&#45;&gt;46</title>
<path fill="none" stroke="#c0c0c0" stroke-width="2" d="M2239,-436.7476C2239,-428.8767 2239,-419.7743 2239,-411.3232"/>
<polygon fill="#c0c0c0" stroke="#c0c0c0" stroke-width="2" points="2242.5001,-411.1086 2239,-401.1087 2235.5001,-411.1087 2242.5001,-411.1086"/>
</g>
</g>
</svg>
