<?xml version="1.0" encoding="UTF-8" standalone="no"?>
<!DOCTYPE svg PUBLIC "-//W3C//DTD SVG 1.1//EN"
 "http://www.w3.org/Graphics/SVG/1.1/DTD/svg11.dtd">
<!-- Generated by graphviz version 2.40.1 (20161225.0304)
 -->
<!-- Title: snakemake_dag Pages: 1 -->
<svg width="4245pt" height="281pt"
 viewBox="0.00 0.00 4244.50 281.00" xmlns="http://www.w3.org/2000/svg" xmlns:xlink="http://www.w3.org/1999/xlink">
<g id="graph0" class="graph" transform="scale(1 1) rotate(0) translate(4 277)">
<title>snakemake_dag</title>
<polygon fill="#ffffff" stroke="transparent" points="-4,4 -4,-277 4240.5,-277 4240.5,4 -4,4"/>
<!-- 0 -->
<g id="node1" class="node">
<title>0</title>
<path fill="none" stroke="#d85656" stroke-width="2" stroke-dasharray="5,2" d="M2879.5,-36C2879.5,-36 2849.5,-36 2849.5,-36 2843.5,-36 2837.5,-30 2837.5,-24 2837.5,-24 2837.5,-12 2837.5,-12 2837.5,-6 2843.5,0 2849.5,0 2849.5,0 2879.5,0 2879.5,0 2885.5,0 2891.5,-6 2891.5,-12 2891.5,-12 2891.5,-24 2891.5,-24 2891.5,-30 2885.5,-36 2879.5,-36"/>
<text text-anchor="middle" x="2864.5" y="-15.5" font-family="sans" font-size="10.00" fill="#000000">all</text>
</g>
<!-- 1 -->
<g id="node2" class="node">
<title>1</title>
<path fill="none" stroke="#d6d856" stroke-width="2" stroke-dasharray="5,2" d="M329,-124C329,-124 12,-124 12,-124 6,-124 0,-118 0,-112 0,-112 0,-84 0,-84 0,-78 6,-72 12,-72 12,-72 329,-72 329,-72 335,-72 341,-78 341,-84 341,-84 341,-112 341,-112 341,-118 335,-124 329,-124"/>
<text text-anchor="middle" x="170.5" y="-112" font-family="sans" font-size="10.00" fill="#000000">fastqc</text>
<text text-anchor="middle" x="170.5" y="-101" font-family="sans" font-size="10.00" fill="#000000">paired_end: 1</text>
<text text-anchor="middle" x="170.5" y="-90" font-family="sans" font-size="10.00" fill="#000000">path: /mnt/prostlocal2/projects/st_mycoplasma_assembly/illumina</text>
<text text-anchor="middle" x="170.5" y="-79" font-family="sans" font-size="10.00" fill="#000000">strain: 15DD0163</text>
</g>
<!-- 1&#45;&gt;0 -->
<g id="edge1" class="edge">
<title>1&#45;&gt;0</title>
<path fill="none" stroke="#c0c0c0" stroke-width="2" d="M341.4621,-72.7035C344.1592,-72.4558 346.8399,-72.2209 349.5,-72 861.1376,-29.5109 2554.278,-19.5191 2827.2097,-18.1713"/>
<polygon fill="#c0c0c0" stroke="#c0c0c0" stroke-width="2" points="2827.3991,-21.6705 2837.3819,-18.1218 2827.365,-14.6706 2827.3991,-21.6705"/>
</g>
<!-- 2 -->
<g id="node3" class="node">
<title>2</title>
<path fill="none" stroke="#d6d856" stroke-width="2" stroke-dasharray="5,2" d="M688,-124C688,-124 371,-124 371,-124 365,-124 359,-118 359,-112 359,-112 359,-84 359,-84 359,-78 365,-72 371,-72 371,-72 688,-72 688,-72 694,-72 700,-78 700,-84 700,-84 700,-112 700,-112 700,-118 694,-124 688,-124"/>
<text text-anchor="middle" x="529.5" y="-112" font-family="sans" font-size="10.00" fill="#000000">fastqc</text>
<text text-anchor="middle" x="529.5" y="-101" font-family="sans" font-size="10.00" fill="#000000">paired_end: 2</text>
<text text-anchor="middle" x="529.5" y="-90" font-family="sans" font-size="10.00" fill="#000000">path: /mnt/prostlocal2/projects/st_mycoplasma_assembly/illumina</text>
<text text-anchor="middle" x="529.5" y="-79" font-family="sans" font-size="10.00" fill="#000000">strain: 15DD0163</text>
</g>
<!-- 2&#45;&gt;0 -->
<g id="edge2" class="edge">
<title>2&#45;&gt;0</title>
<path fill="none" stroke="#c0c0c0" stroke-width="2" d="M700.4632,-72.7169C703.16,-72.465 705.8403,-72.2257 708.5,-72 1143.8828,-35.0601 2577.4776,-20.5916 2827.2298,-18.3246"/>
<polygon fill="#c0c0c0" stroke="#c0c0c0" stroke-width="2" points="2827.2845,-21.8244 2837.2526,-18.2345 2827.2215,-14.8247 2827.2845,-21.8244"/>
</g>
<!-- 3 -->
<g id="node4" class="node">
<title>3</title>
<path fill="none" stroke="#d6d856" stroke-width="2" stroke-dasharray="5,2" d="M1047,-124C1047,-124 730,-124 730,-124 724,-124 718,-118 718,-112 718,-112 718,-84 718,-84 718,-78 724,-72 730,-72 730,-72 1047,-72 1047,-72 1053,-72 1059,-78 1059,-84 1059,-84 1059,-112 1059,-112 1059,-118 1053,-124 1047,-124"/>
<text text-anchor="middle" x="888.5" y="-112" font-family="sans" font-size="10.00" fill="#000000">fastqc</text>
<text text-anchor="middle" x="888.5" y="-101" font-family="sans" font-size="10.00" fill="#000000">paired_end: 1</text>
<text text-anchor="middle" x="888.5" y="-90" font-family="sans" font-size="10.00" fill="#000000">path: /mnt/prostlocal2/projects/st_mycoplasma_assembly/illumina</text>
<text text-anchor="middle" x="888.5" y="-79" font-family="sans" font-size="10.00" fill="#000000">strain: 17DD0007</text>
</g>
<!-- 3&#45;&gt;0 -->
<g id="edge3" class="edge">
<title>3&#45;&gt;0</title>
<path fill="none" stroke="#c0c0c0" stroke-width="2" d="M1059.4648,-72.7355C1062.1611,-72.4778 1064.8409,-72.2323 1067.5,-72 1426.7712,-40.613 2601.7227,-21.8894 2826.9742,-18.5428"/>
<polygon fill="#c0c0c0" stroke="#c0c0c0" stroke-width="2" points="2827.322,-22.0381 2837.2692,-18.3908 2827.2186,-15.0389 2827.322,-22.0381"/>
</g>
<!-- 4 -->
<g id="node5" class="node">
<title>4</title>
<path fill="none" stroke="#d6d856" stroke-width="2" stroke-dasharray="5,2" d="M1406,-124C1406,-124 1089,-124 1089,-124 1083,-124 1077,-118 1077,-112 1077,-112 1077,-84 1077,-84 1077,-78 1083,-72 1089,-72 1089,-72 1406,-72 1406,-72 1412,-72 1418,-78 1418,-84 1418,-84 1418,-112 1418,-112 1418,-118 1412,-124 1406,-124"/>
<text text-anchor="middle" x="1247.5" y="-112" font-family="sans" font-size="10.00" fill="#000000">fastqc</text>
<text text-anchor="middle" x="1247.5" y="-101" font-family="sans" font-size="10.00" fill="#000000">paired_end: 2</text>
<text text-anchor="middle" x="1247.5" y="-90" font-family="sans" font-size="10.00" fill="#000000">path: /mnt/prostlocal2/projects/st_mycoplasma_assembly/illumina</text>
<text text-anchor="middle" x="1247.5" y="-79" font-family="sans" font-size="10.00" fill="#000000">strain: 17DD0007</text>
</g>
<!-- 4&#45;&gt;0 -->
<g id="edge4" class="edge">
<title>4&#45;&gt;0</title>
<path fill="none" stroke="#c0c0c0" stroke-width="2" d="M1418.4673,-72.7634C1421.1628,-72.4971 1423.8418,-72.2423 1426.5,-72 1710.3492,-46.1301 2630.6099,-23.4767 2827.2928,-18.8582"/>
<polygon fill="#c0c0c0" stroke="#c0c0c0" stroke-width="2" points="2827.4903,-22.3546 2837.4057,-18.6217 2827.3265,-15.3565 2827.4903,-22.3546"/>
</g>
<!-- 5 -->
<g id="node6" class="node">
<title>5</title>
<path fill="none" stroke="#d6d856" stroke-width="2" stroke-dasharray="5,2" d="M1765,-124C1765,-124 1448,-124 1448,-124 1442,-124 1436,-118 1436,-112 1436,-112 1436,-84 1436,-84 1436,-78 1442,-72 1448,-72 1448,-72 1765,-72 1765,-72 1771,-72 1777,-78 1777,-84 1777,-84 1777,-112 1777,-112 1777,-118 1771,-124 1765,-124"/>
<text text-anchor="middle" x="1606.5" y="-112" font-family="sans" font-size="10.00" fill="#000000">fastqc</text>
<text text-anchor="middle" x="1606.5" y="-101" font-family="sans" font-size="10.00" fill="#000000">paired_end: 1</text>
<text text-anchor="middle" x="1606.5" y="-90" font-family="sans" font-size="10.00" fill="#000000">path: /mnt/prostlocal2/projects/st_mycoplasma_assembly/illumina</text>
<text text-anchor="middle" x="1606.5" y="-79" font-family="sans" font-size="10.00" fill="#000000">strain: 17DD0020</text>
</g>
<!-- 5&#45;&gt;0 -->
<g id="edge5" class="edge">
<title>5&#45;&gt;0</title>
<path fill="none" stroke="#c0c0c0" stroke-width="2" d="M1777.4717,-72.8099C1780.1658,-72.5291 1782.8434,-72.2588 1785.5,-72 2192.5842,-32.3377 2689.0747,-21.0633 2827.2662,-18.593"/>
<polygon fill="#c0c0c0" stroke="#c0c0c0" stroke-width="2" points="2827.3918,-22.0914 2837.3292,-18.4175 2827.2697,-15.0925 2827.3918,-22.0914"/>
</g>
<!-- 6 -->
<g id="node7" class="node">
<title>6</title>
<path fill="none" stroke="#d6d856" stroke-width="2" stroke-dasharray="5,2" d="M2124,-124C2124,-124 1807,-124 1807,-124 1801,-124 1795,-118 1795,-112 1795,-112 1795,-84 1795,-84 1795,-78 1801,-72 1807,-72 1807,-72 2124,-72 2124,-72 2130,-72 2136,-78 2136,-84 2136,-84 2136,-112 2136,-112 2136,-118 2130,-124 2124,-124"/>
<text text-anchor="middle" x="1965.5" y="-112" font-family="sans" font-size="10.00" fill="#000000">fastqc</text>
<text text-anchor="middle" x="1965.5" y="-101" font-family="sans" font-size="10.00" fill="#000000">paired_end: 2</text>
<text text-anchor="middle" x="1965.5" y="-90" font-family="sans" font-size="10.00" fill="#000000">path: /mnt/prostlocal2/projects/st_mycoplasma_assembly/illumina</text>
<text text-anchor="middle" x="1965.5" y="-79" font-family="sans" font-size="10.00" fill="#000000">strain: 17DD0020</text>
</g>
<!-- 6&#45;&gt;0 -->
<g id="edge6" class="edge">
<title>6&#45;&gt;0</title>
<path fill="none" stroke="#c0c0c0" stroke-width="2" d="M2136.3036,-73.5886C2141.0847,-73.0359 2145.8243,-72.5049 2150.5,-72 2408.599,-44.1323 2720.7296,-25.797 2826.9957,-19.9862"/>
<polygon fill="#c0c0c0" stroke="#c0c0c0" stroke-width="2" points="2827.4099,-23.4689 2837.2054,-19.4319 2827.0304,-16.4792 2827.4099,-23.4689"/>
</g>
<!-- 7 -->
<g id="node8" class="node">
<title>7</title>
<path fill="none" stroke="#d89556" stroke-width="2" stroke-dasharray="5,2" d="M2455,-273C2455,-273 2138,-273 2138,-273 2132,-273 2126,-267 2126,-261 2126,-261 2126,-244 2126,-244 2126,-238 2132,-232 2138,-232 2138,-232 2455,-232 2455,-232 2461,-232 2467,-238 2467,-244 2467,-244 2467,-261 2467,-261 2467,-267 2461,-273 2455,-273"/>
<text text-anchor="middle" x="2296.5" y="-261" font-family="sans" font-size="10.00" fill="#000000">fastp</text>
<text text-anchor="middle" x="2296.5" y="-250" font-family="sans" font-size="10.00" fill="#000000">path: /mnt/prostlocal2/projects/st_mycoplasma_assembly/illumina</text>
<text text-anchor="middle" x="2296.5" y="-239" font-family="sans" font-size="10.00" fill="#000000">strain: 15DD0163</text>
</g>
<!-- 7&#45;&gt;0 -->
<g id="edge7" class="edge">
<title>7&#45;&gt;0</title>
<path fill="none" stroke="#c0c0c0" stroke-width="2" d="M2272.0181,-231.8825C2232.0833,-195.8605 2161.6578,-120.673 2206.5,-72 2248.7503,-26.1404 2694.6081,-19.2271 2827.391,-18.185"/>
<polygon fill="#c0c0c0" stroke="#c0c0c0" stroke-width="2" points="2827.5011,-21.6844 2837.4757,-18.1126 2827.4508,-14.6846 2827.5011,-21.6844"/>
</g>
<!-- 10 -->
<g id="node11" class="node">
<title>10</title>
<path fill="none" stroke="#59d856" stroke-width="2" stroke-dasharray="5,2" d="M2456.5,-196C2456.5,-196 2400.5,-196 2400.5,-196 2394.5,-196 2388.5,-190 2388.5,-184 2388.5,-184 2388.5,-172 2388.5,-172 2388.5,-166 2394.5,-160 2400.5,-160 2400.5,-160 2456.5,-160 2456.5,-160 2462.5,-160 2468.5,-166 2468.5,-172 2468.5,-172 2468.5,-184 2468.5,-184 2468.5,-190 2462.5,-196 2456.5,-196"/>
<text text-anchor="middle" x="2428.5" y="-175.5" font-family="sans" font-size="10.00" fill="#000000">trimmomatic</text>
</g>
<!-- 7&#45;&gt;10 -->
<g id="edge28" class="edge">
<title>7&#45;&gt;10</title>
<path fill="none" stroke="#c0c0c0" stroke-width="2" d="M2332.919,-231.9453C2349.8147,-222.4095 2369.9715,-211.0332 2387.4094,-201.1913"/>
<polygon fill="#c0c0c0" stroke="#c0c0c0" stroke-width="2" points="2389.2604,-204.1656 2396.2488,-196.2024 2385.8197,-198.0695 2389.2604,-204.1656"/>
</g>
<!-- 8 -->
<g id="node9" class="node">
<title>8</title>
<path fill="none" stroke="#d89556" stroke-width="2" stroke-dasharray="5,2" d="M3155,-273C3155,-273 2838,-273 2838,-273 2832,-273 2826,-267 2826,-261 2826,-261 2826,-244 2826,-244 2826,-238 2832,-232 2838,-232 2838,-232 3155,-232 3155,-232 3161,-232 3167,-238 3167,-244 3167,-244 3167,-261 3167,-261 3167,-267 3161,-273 3155,-273"/>
<text text-anchor="middle" x="2996.5" y="-261" font-family="sans" font-size="10.00" fill="#000000">fastp</text>
<text text-anchor="middle" x="2996.5" y="-250" font-family="sans" font-size="10.00" fill="#000000">path: /mnt/prostlocal2/projects/st_mycoplasma_assembly/illumina</text>
<text text-anchor="middle" x="2996.5" y="-239" font-family="sans" font-size="10.00" fill="#000000">strain: 17DD0007</text>
</g>
<!-- 8&#45;&gt;0 -->
<g id="edge8" class="edge">
<title>8&#45;&gt;0</title>
<path fill="none" stroke="#c0c0c0" stroke-width="2" d="M2970.1875,-231.9894C2942.6516,-208.9194 2900.557,-168.7763 2879.5,-124 2867.9447,-99.4283 2864.693,-68.3802 2864.0308,-46.25"/>
<polygon fill="#c0c0c0" stroke="#c0c0c0" stroke-width="2" points="2867.5294,-46.1196 2863.8887,-36.1699 2860.5301,-46.2183 2867.5294,-46.1196"/>
</g>
<!-- 11 -->
<g id="node12" class="node">
<title>11</title>
<path fill="none" stroke="#59d856" stroke-width="2" stroke-dasharray="5,2" d="M3156.5,-196C3156.5,-196 3100.5,-196 3100.5,-196 3094.5,-196 3088.5,-190 3088.5,-184 3088.5,-184 3088.5,-172 3088.5,-172 3088.5,-166 3094.5,-160 3100.5,-160 3100.5,-160 3156.5,-160 3156.5,-160 3162.5,-160 3168.5,-166 3168.5,-172 3168.5,-172 3168.5,-184 3168.5,-184 3168.5,-190 3162.5,-196 3156.5,-196"/>
<text text-anchor="middle" x="3128.5" y="-175.5" font-family="sans" font-size="10.00" fill="#000000">trimmomatic</text>
</g>
<!-- 8&#45;&gt;11 -->
<g id="edge29" class="edge">
<title>8&#45;&gt;11</title>
<path fill="none" stroke="#c0c0c0" stroke-width="2" d="M3032.919,-231.9453C3049.8147,-222.4095 3069.9715,-211.0332 3087.4094,-201.1913"/>
<polygon fill="#c0c0c0" stroke="#c0c0c0" stroke-width="2" points="3089.2604,-204.1656 3096.2488,-196.2024 3085.8197,-198.0695 3089.2604,-204.1656"/>
</g>
<!-- 9 -->
<g id="node10" class="node">
<title>9</title>
<path fill="none" stroke="#d89556" stroke-width="2" stroke-dasharray="5,2" d="M3855,-273C3855,-273 3538,-273 3538,-273 3532,-273 3526,-267 3526,-261 3526,-261 3526,-244 3526,-244 3526,-238 3532,-232 3538,-232 3538,-232 3855,-232 3855,-232 3861,-232 3867,-238 3867,-244 3867,-244 3867,-261 3867,-261 3867,-267 3861,-273 3855,-273"/>
<text text-anchor="middle" x="3696.5" y="-261" font-family="sans" font-size="10.00" fill="#000000">fastp</text>
<text text-anchor="middle" x="3696.5" y="-250" font-family="sans" font-size="10.00" fill="#000000">path: /mnt/prostlocal2/projects/st_mycoplasma_assembly/illumina</text>
<text text-anchor="middle" x="3696.5" y="-239" font-family="sans" font-size="10.00" fill="#000000">strain: 17DD0020</text>
</g>
<!-- 9&#45;&gt;0 -->
<g id="edge9" class="edge">
<title>9&#45;&gt;0</title>
<path fill="none" stroke="#c0c0c0" stroke-width="2" d="M3675.2319,-231.7011C3650.605,-207.1014 3609.4625,-164.3797 3578.5,-124 3561.8443,-102.2785 3568.946,-86.1251 3545.5,-72 3490.2339,-38.7048 3036.8693,-22.9958 2902.1275,-19.0328"/>
<polygon fill="#c0c0c0" stroke="#c0c0c0" stroke-width="2" points="2901.993,-15.5275 2891.8959,-18.7365 2901.7903,-22.5246 2901.993,-15.5275"/>
</g>
<!-- 12 -->
<g id="node13" class="node">
<title>12</title>
<path fill="none" stroke="#59d856" stroke-width="2" stroke-dasharray="5,2" d="M3856.5,-196C3856.5,-196 3800.5,-196 3800.5,-196 3794.5,-196 3788.5,-190 3788.5,-184 3788.5,-184 3788.5,-172 3788.5,-172 3788.5,-166 3794.5,-160 3800.5,-160 3800.5,-160 3856.5,-160 3856.5,-160 3862.5,-160 3868.5,-166 3868.5,-172 3868.5,-172 3868.5,-184 3868.5,-184 3868.5,-190 3862.5,-196 3856.5,-196"/>
<text text-anchor="middle" x="3828.5" y="-175.5" font-family="sans" font-size="10.00" fill="#000000">trimmomatic</text>
</g>
<!-- 9&#45;&gt;12 -->
<g id="edge30" class="edge">
<title>9&#45;&gt;12</title>
<path fill="none" stroke="#c0c0c0" stroke-width="2" d="M3732.919,-231.9453C3749.8147,-222.4095 3769.9715,-211.0332 3787.4094,-201.1913"/>
<polygon fill="#c0c0c0" stroke="#c0c0c0" stroke-width="2" points="3789.2604,-204.1656 3796.2488,-196.2024 3785.8197,-198.0695 3789.2604,-204.1656"/>
</g>
<!-- 10&#45;&gt;0 -->
<g id="edge10" class="edge">
<title>10&#45;&gt;0</title>
<path fill="none" stroke="#c0c0c0" stroke-width="2" d="M2388.1883,-173.3006C2333.891,-166.0465 2241.7091,-150.1574 2221.5,-124 2207.3703,-105.7114 2205.8567,-89.0121 2221.5,-72 2262.6174,-27.2847 2695.6527,-19.5765 2826.9644,-18.265"/>
<polygon fill="#c0c0c0" stroke="#c0c0c0" stroke-width="2" points="2827.3411,-21.7617 2837.3081,-18.1688 2827.276,-14.762 2827.3411,-21.7617"/>
</g>
<!-- 13 -->
<g id="node14" class="node">
<title>13</title>
<path fill="none" stroke="#97d856" stroke-width="2" stroke-dasharray="5,2" d="M2338.5,-116C2338.5,-116 2242.5,-116 2242.5,-116 2236.5,-116 2230.5,-110 2230.5,-104 2230.5,-104 2230.5,-92 2230.5,-92 2230.5,-86 2236.5,-80 2242.5,-80 2242.5,-80 2338.5,-80 2338.5,-80 2344.5,-80 2350.5,-86 2350.5,-92 2350.5,-92 2350.5,-104 2350.5,-104 2350.5,-110 2344.5,-116 2338.5,-116"/>
<text text-anchor="middle" x="2290.5" y="-101" font-family="sans" font-size="10.00" fill="#000000">fastqc_preprocessing</text>
<text text-anchor="middle" x="2290.5" y="-90" font-family="sans" font-size="10.00" fill="#000000">paired_unpaired: 1P</text>
</g>
<!-- 10&#45;&gt;13 -->
<g id="edge31" class="edge">
<title>10&#45;&gt;13</title>
<path fill="none" stroke="#c0c0c0" stroke-width="2" d="M2397.1857,-159.8468C2377.4242,-148.3908 2351.7137,-133.4862 2330.4841,-121.1792"/>
<polygon fill="#c0c0c0" stroke="#c0c0c0" stroke-width="2" points="2332.0972,-118.0688 2321.6904,-116.0814 2328.5865,-124.1247 2332.0972,-118.0688"/>
</g>
<!-- 14 -->
<g id="node15" class="node">
<title>14</title>
<path fill="none" stroke="#97d856" stroke-width="2" stroke-dasharray="5,2" d="M2476.5,-116C2476.5,-116 2380.5,-116 2380.5,-116 2374.5,-116 2368.5,-110 2368.5,-104 2368.5,-104 2368.5,-92 2368.5,-92 2368.5,-86 2374.5,-80 2380.5,-80 2380.5,-80 2476.5,-80 2476.5,-80 2482.5,-80 2488.5,-86 2488.5,-92 2488.5,-92 2488.5,-104 2488.5,-104 2488.5,-110 2482.5,-116 2476.5,-116"/>
<text text-anchor="middle" x="2428.5" y="-101" font-family="sans" font-size="10.00" fill="#000000">fastqc_preprocessing</text>
<text text-anchor="middle" x="2428.5" y="-90" font-family="sans" font-size="10.00" fill="#000000">paired_unpaired: 1U</text>
</g>
<!-- 10&#45;&gt;14 -->
<g id="edge32" class="edge">
<title>10&#45;&gt;14</title>
<path fill="none" stroke="#c0c0c0" stroke-width="2" d="M2428.5,-159.8468C2428.5,-149.9251 2428.5,-137.4167 2428.5,-126.2492"/>
<polygon fill="#c0c0c0" stroke="#c0c0c0" stroke-width="2" points="2432.0001,-126.0814 2428.5,-116.0814 2425.0001,-126.0814 2432.0001,-126.0814"/>
</g>
<!-- 15 -->
<g id="node16" class="node">
<title>15</title>
<path fill="none" stroke="#97d856" stroke-width="2" stroke-dasharray="5,2" d="M2614.5,-116C2614.5,-116 2518.5,-116 2518.5,-116 2512.5,-116 2506.5,-110 2506.5,-104 2506.5,-104 2506.5,-92 2506.5,-92 2506.5,-86 2512.5,-80 2518.5,-80 2518.5,-80 2614.5,-80 2614.5,-80 2620.5,-80 2626.5,-86 2626.5,-92 2626.5,-92 2626.5,-104 2626.5,-104 2626.5,-110 2620.5,-116 2614.5,-116"/>
<text text-anchor="middle" x="2566.5" y="-101" font-family="sans" font-size="10.00" fill="#000000">fastqc_preprocessing</text>
<text text-anchor="middle" x="2566.5" y="-90" font-family="sans" font-size="10.00" fill="#000000">paired_unpaired: 2P</text>
</g>
<!-- 10&#45;&gt;15 -->
<g id="edge33" class="edge">
<title>10&#45;&gt;15</title>
<path fill="none" stroke="#c0c0c0" stroke-width="2" d="M2459.8143,-159.8468C2479.5758,-148.3908 2505.2863,-133.4862 2526.5159,-121.1792"/>
<polygon fill="#c0c0c0" stroke="#c0c0c0" stroke-width="2" points="2528.4135,-124.1247 2535.3096,-116.0814 2524.9028,-118.0688 2528.4135,-124.1247"/>
</g>
<!-- 16 -->
<g id="node17" class="node">
<title>16</title>
<path fill="none" stroke="#97d856" stroke-width="2" stroke-dasharray="5,2" d="M2752.5,-116C2752.5,-116 2656.5,-116 2656.5,-116 2650.5,-116 2644.5,-110 2644.5,-104 2644.5,-104 2644.5,-92 2644.5,-92 2644.5,-86 2650.5,-80 2656.5,-80 2656.5,-80 2752.5,-80 2752.5,-80 2758.5,-80 2764.5,-86 2764.5,-92 2764.5,-92 2764.5,-104 2764.5,-104 2764.5,-110 2758.5,-116 2752.5,-116"/>
<text text-anchor="middle" x="2704.5" y="-101" font-family="sans" font-size="10.00" fill="#000000">fastqc_preprocessing</text>
<text text-anchor="middle" x="2704.5" y="-90" font-family="sans" font-size="10.00" fill="#000000">paired_unpaired: 2U</text>
</g>
<!-- 10&#45;&gt;16 -->
<g id="edge34" class="edge">
<title>10&#45;&gt;16</title>
<path fill="none" stroke="#c0c0c0" stroke-width="2" d="M2468.5387,-168.8771C2510.4975,-159.0096 2578.16,-142.2267 2635.5,-124 2639.9911,-122.5724 2644.6173,-121.0178 2649.247,-119.4021"/>
<polygon fill="#c0c0c0" stroke="#c0c0c0" stroke-width="2" points="2650.4725,-122.681 2658.7126,-116.0213 2648.118,-116.0889 2650.4725,-122.681"/>
</g>
<!-- 25 -->
<g id="node26" class="node">
<title>25</title>
<path fill="none" stroke="#56d8d8" stroke-width="2" stroke-dasharray="5,2" d="M2824.5,-116C2824.5,-116 2794.5,-116 2794.5,-116 2788.5,-116 2782.5,-110 2782.5,-104 2782.5,-104 2782.5,-92 2782.5,-92 2782.5,-86 2788.5,-80 2794.5,-80 2794.5,-80 2824.5,-80 2824.5,-80 2830.5,-80 2836.5,-86 2836.5,-92 2836.5,-92 2836.5,-104 2836.5,-104 2836.5,-110 2830.5,-116 2824.5,-116"/>
<text text-anchor="middle" x="2809.5" y="-95.5" font-family="sans" font-size="10.00" fill="#000000">spades</text>
</g>
<!-- 10&#45;&gt;25 -->
<g id="edge43" class="edge">
<title>10&#45;&gt;25</title>
<path fill="none" stroke="#c0c0c0" stroke-width="2" d="M2468.6192,-174.0945C2547.2756,-166.051 2718.8375,-146.4932 2773.5,-124 2775.318,-123.2519 2777.1311,-122.3948 2778.9221,-121.458"/>
<polygon fill="#c0c0c0" stroke="#c0c0c0" stroke-width="2" points="2780.8397,-124.3892 2787.6146,-116.2435 2777.2387,-118.3864 2780.8397,-124.3892"/>
</g>
<!-- 11&#45;&gt;0 -->
<g id="edge11" class="edge">
<title>11&#45;&gt;0</title>
<path fill="none" stroke="#c0c0c0" stroke-width="2" d="M3088.4645,-171.4724C3035.8995,-162.251 2947.2658,-144.2584 2921.5,-124 2896.3482,-104.2244 2880.892,-70.1818 2872.5313,-46.0149"/>
<polygon fill="#c0c0c0" stroke="#c0c0c0" stroke-width="2" points="2875.8021,-44.7555 2869.375,-36.3327 2869.1468,-46.9251 2875.8021,-44.7555"/>
</g>
<!-- 17 -->
<g id="node18" class="node">
<title>17</title>
<path fill="none" stroke="#97d856" stroke-width="2" stroke-dasharray="5,2" d="M3038.5,-116C3038.5,-116 2942.5,-116 2942.5,-116 2936.5,-116 2930.5,-110 2930.5,-104 2930.5,-104 2930.5,-92 2930.5,-92 2930.5,-86 2936.5,-80 2942.5,-80 2942.5,-80 3038.5,-80 3038.5,-80 3044.5,-80 3050.5,-86 3050.5,-92 3050.5,-92 3050.5,-104 3050.5,-104 3050.5,-110 3044.5,-116 3038.5,-116"/>
<text text-anchor="middle" x="2990.5" y="-101" font-family="sans" font-size="10.00" fill="#000000">fastqc_preprocessing</text>
<text text-anchor="middle" x="2990.5" y="-90" font-family="sans" font-size="10.00" fill="#000000">paired_unpaired: 1P</text>
</g>
<!-- 11&#45;&gt;17 -->
<g id="edge35" class="edge">
<title>11&#45;&gt;17</title>
<path fill="none" stroke="#c0c0c0" stroke-width="2" d="M3097.1857,-159.8468C3077.4242,-148.3908 3051.7137,-133.4862 3030.4841,-121.1792"/>
<polygon fill="#c0c0c0" stroke="#c0c0c0" stroke-width="2" points="3032.0972,-118.0688 3021.6904,-116.0814 3028.5865,-124.1247 3032.0972,-118.0688"/>
</g>
<!-- 18 -->
<g id="node19" class="node">
<title>18</title>
<path fill="none" stroke="#97d856" stroke-width="2" stroke-dasharray="5,2" d="M3176.5,-116C3176.5,-116 3080.5,-116 3080.5,-116 3074.5,-116 3068.5,-110 3068.5,-104 3068.5,-104 3068.5,-92 3068.5,-92 3068.5,-86 3074.5,-80 3080.5,-80 3080.5,-80 3176.5,-80 3176.5,-80 3182.5,-80 3188.5,-86 3188.5,-92 3188.5,-92 3188.5,-104 3188.5,-104 3188.5,-110 3182.5,-116 3176.5,-116"/>
<text text-anchor="middle" x="3128.5" y="-101" font-family="sans" font-size="10.00" fill="#000000">fastqc_preprocessing</text>
<text text-anchor="middle" x="3128.5" y="-90" font-family="sans" font-size="10.00" fill="#000000">paired_unpaired: 1U</text>
</g>
<!-- 11&#45;&gt;18 -->
<g id="edge36" class="edge">
<title>11&#45;&gt;18</title>
<path fill="none" stroke="#c0c0c0" stroke-width="2" d="M3128.5,-159.8468C3128.5,-149.9251 3128.5,-137.4167 3128.5,-126.2492"/>
<polygon fill="#c0c0c0" stroke="#c0c0c0" stroke-width="2" points="3132.0001,-126.0814 3128.5,-116.0814 3125.0001,-126.0814 3132.0001,-126.0814"/>
</g>
<!-- 19 -->
<g id="node20" class="node">
<title>19</title>
<path fill="none" stroke="#97d856" stroke-width="2" stroke-dasharray="5,2" d="M3314.5,-116C3314.5,-116 3218.5,-116 3218.5,-116 3212.5,-116 3206.5,-110 3206.5,-104 3206.5,-104 3206.5,-92 3206.5,-92 3206.5,-86 3212.5,-80 3218.5,-80 3218.5,-80 3314.5,-80 3314.5,-80 3320.5,-80 3326.5,-86 3326.5,-92 3326.5,-92 3326.5,-104 3326.5,-104 3326.5,-110 3320.5,-116 3314.5,-116"/>
<text text-anchor="middle" x="3266.5" y="-101" font-family="sans" font-size="10.00" fill="#000000">fastqc_preprocessing</text>
<text text-anchor="middle" x="3266.5" y="-90" font-family="sans" font-size="10.00" fill="#000000">paired_unpaired: 2P</text>
</g>
<!-- 11&#45;&gt;19 -->
<g id="edge37" class="edge">
<title>11&#45;&gt;19</title>
<path fill="none" stroke="#c0c0c0" stroke-width="2" d="M3159.8143,-159.8468C3179.5758,-148.3908 3205.2863,-133.4862 3226.5159,-121.1792"/>
<polygon fill="#c0c0c0" stroke="#c0c0c0" stroke-width="2" points="3228.4135,-124.1247 3235.3096,-116.0814 3224.9028,-118.0688 3228.4135,-124.1247"/>
</g>
<!-- 20 -->
<g id="node21" class="node">
<title>20</title>
<path fill="none" stroke="#97d856" stroke-width="2" stroke-dasharray="5,2" d="M3452.5,-116C3452.5,-116 3356.5,-116 3356.5,-116 3350.5,-116 3344.5,-110 3344.5,-104 3344.5,-104 3344.5,-92 3344.5,-92 3344.5,-86 3350.5,-80 3356.5,-80 3356.5,-80 3452.5,-80 3452.5,-80 3458.5,-80 3464.5,-86 3464.5,-92 3464.5,-92 3464.5,-104 3464.5,-104 3464.5,-110 3458.5,-116 3452.5,-116"/>
<text text-anchor="middle" x="3404.5" y="-101" font-family="sans" font-size="10.00" fill="#000000">fastqc_preprocessing</text>
<text text-anchor="middle" x="3404.5" y="-90" font-family="sans" font-size="10.00" fill="#000000">paired_unpaired: 2U</text>
</g>
<!-- 11&#45;&gt;20 -->
<g id="edge38" class="edge">
<title>11&#45;&gt;20</title>
<path fill="none" stroke="#c0c0c0" stroke-width="2" d="M3168.5387,-168.8771C3210.4975,-159.0096 3278.16,-142.2267 3335.5,-124 3339.9911,-122.5724 3344.6173,-121.0178 3349.247,-119.4021"/>
<polygon fill="#c0c0c0" stroke="#c0c0c0" stroke-width="2" points="3350.4725,-122.681 3358.7126,-116.0213 3348.118,-116.0889 3350.4725,-122.681"/>
</g>
<!-- 26 -->
<g id="node27" class="node">
<title>26</title>
<path fill="none" stroke="#56d8d8" stroke-width="2" stroke-dasharray="5,2" d="M3524.5,-116C3524.5,-116 3494.5,-116 3494.5,-116 3488.5,-116 3482.5,-110 3482.5,-104 3482.5,-104 3482.5,-92 3482.5,-92 3482.5,-86 3488.5,-80 3494.5,-80 3494.5,-80 3524.5,-80 3524.5,-80 3530.5,-80 3536.5,-86 3536.5,-92 3536.5,-92 3536.5,-104 3536.5,-104 3536.5,-110 3530.5,-116 3524.5,-116"/>
<text text-anchor="middle" x="3509.5" y="-95.5" font-family="sans" font-size="10.00" fill="#000000">spades</text>
</g>
<!-- 11&#45;&gt;26 -->
<g id="edge44" class="edge">
<title>11&#45;&gt;26</title>
<path fill="none" stroke="#c0c0c0" stroke-width="2" d="M3168.6192,-174.0945C3247.2756,-166.051 3418.8375,-146.4932 3473.5,-124 3475.318,-123.2519 3477.1311,-122.3948 3478.9221,-121.458"/>
<polygon fill="#c0c0c0" stroke="#c0c0c0" stroke-width="2" points="3480.8397,-124.3892 3487.6146,-116.2435 3477.2387,-118.3864 3480.8397,-124.3892"/>
</g>
<!-- 12&#45;&gt;0 -->
<g id="edge12" class="edge">
<title>12&#45;&gt;0</title>
<path fill="none" stroke="#c0c0c0" stroke-width="2" d="M3788.2156,-174.8681C3744.2296,-169.8518 3673.1747,-156.9412 3621.5,-124 3596.2119,-107.8795 3605.1326,-85.7864 3578.5,-72 3518.1797,-40.775 3040.446,-23.5071 2901.985,-19.1238"/>
<polygon fill="#c0c0c0" stroke="#c0c0c0" stroke-width="2" points="2901.9722,-15.6217 2891.8676,-18.8074 2901.7533,-22.6183 2901.9722,-15.6217"/>
</g>
<!-- 21 -->
<g id="node22" class="node">
<title>21</title>
<path fill="none" stroke="#97d856" stroke-width="2" stroke-dasharray="5,2" d="M3738.5,-116C3738.5,-116 3642.5,-116 3642.5,-116 3636.5,-116 3630.5,-110 3630.5,-104 3630.5,-104 3630.5,-92 3630.5,-92 3630.5,-86 3636.5,-80 3642.5,-80 3642.5,-80 3738.5,-80 3738.5,-80 3744.5,-80 3750.5,-86 3750.5,-92 3750.5,-92 3750.5,-104 3750.5,-104 3750.5,-110 3744.5,-116 3738.5,-116"/>
<text text-anchor="middle" x="3690.5" y="-101" font-family="sans" font-size="10.00" fill="#000000">fastqc_preprocessing</text>
<text text-anchor="middle" x="3690.5" y="-90" font-family="sans" font-size="10.00" fill="#000000">paired_unpaired: 1P</text>
</g>
<!-- 12&#45;&gt;21 -->
<g id="edge39" class="edge">
<title>12&#45;&gt;21</title>
<path fill="none" stroke="#c0c0c0" stroke-width="2" d="M3797.1857,-159.8468C3777.4242,-148.3908 3751.7137,-133.4862 3730.4841,-121.1792"/>
<polygon fill="#c0c0c0" stroke="#c0c0c0" stroke-width="2" points="3732.0972,-118.0688 3721.6904,-116.0814 3728.5865,-124.1247 3732.0972,-118.0688"/>
</g>
<!-- 22 -->
<g id="node23" class="node">
<title>22</title>
<path fill="none" stroke="#97d856" stroke-width="2" stroke-dasharray="5,2" d="M3876.5,-116C3876.5,-116 3780.5,-116 3780.5,-116 3774.5,-116 3768.5,-110 3768.5,-104 3768.5,-104 3768.5,-92 3768.5,-92 3768.5,-86 3774.5,-80 3780.5,-80 3780.5,-80 3876.5,-80 3876.5,-80 3882.5,-80 3888.5,-86 3888.5,-92 3888.5,-92 3888.5,-104 3888.5,-104 3888.5,-110 3882.5,-116 3876.5,-116"/>
<text text-anchor="middle" x="3828.5" y="-101" font-family="sans" font-size="10.00" fill="#000000">fastqc_preprocessing</text>
<text text-anchor="middle" x="3828.5" y="-90" font-family="sans" font-size="10.00" fill="#000000">paired_unpaired: 1U</text>
</g>
<!-- 12&#45;&gt;22 -->
<g id="edge40" class="edge">
<title>12&#45;&gt;22</title>
<path fill="none" stroke="#c0c0c0" stroke-width="2" d="M3828.5,-159.8468C3828.5,-149.9251 3828.5,-137.4167 3828.5,-126.2492"/>
<polygon fill="#c0c0c0" stroke="#c0c0c0" stroke-width="2" points="3832.0001,-126.0814 3828.5,-116.0814 3825.0001,-126.0814 3832.0001,-126.0814"/>
</g>
<!-- 23 -->
<g id="node24" class="node">
<title>23</title>
<path fill="none" stroke="#97d856" stroke-width="2" stroke-dasharray="5,2" d="M4014.5,-116C4014.5,-116 3918.5,-116 3918.5,-116 3912.5,-116 3906.5,-110 3906.5,-104 3906.5,-104 3906.5,-92 3906.5,-92 3906.5,-86 3912.5,-80 3918.5,-80 3918.5,-80 4014.5,-80 4014.5,-80 4020.5,-80 4026.5,-86 4026.5,-92 4026.5,-92 4026.5,-104 4026.5,-104 4026.5,-110 4020.5,-116 4014.5,-116"/>
<text text-anchor="middle" x="3966.5" y="-101" font-family="sans" font-size="10.00" fill="#000000">fastqc_preprocessing</text>
<text text-anchor="middle" x="3966.5" y="-90" font-family="sans" font-size="10.00" fill="#000000">paired_unpaired: 2P</text>
</g>
<!-- 12&#45;&gt;23 -->
<g id="edge41" class="edge">
<title>12&#45;&gt;23</title>
<path fill="none" stroke="#c0c0c0" stroke-width="2" d="M3859.8143,-159.8468C3879.5758,-148.3908 3905.2863,-133.4862 3926.5159,-121.1792"/>
<polygon fill="#c0c0c0" stroke="#c0c0c0" stroke-width="2" points="3928.4135,-124.1247 3935.3096,-116.0814 3924.9028,-118.0688 3928.4135,-124.1247"/>
</g>
<!-- 24 -->
<g id="node25" class="node">
<title>24</title>
<path fill="none" stroke="#97d856" stroke-width="2" stroke-dasharray="5,2" d="M4152.5,-116C4152.5,-116 4056.5,-116 4056.5,-116 4050.5,-116 4044.5,-110 4044.5,-104 4044.5,-104 4044.5,-92 4044.5,-92 4044.5,-86 4050.5,-80 4056.5,-80 4056.5,-80 4152.5,-80 4152.5,-80 4158.5,-80 4164.5,-86 4164.5,-92 4164.5,-92 4164.5,-104 4164.5,-104 4164.5,-110 4158.5,-116 4152.5,-116"/>
<text text-anchor="middle" x="4104.5" y="-101" font-family="sans" font-size="10.00" fill="#000000">fastqc_preprocessing</text>
<text text-anchor="middle" x="4104.5" y="-90" font-family="sans" font-size="10.00" fill="#000000">paired_unpaired: 2U</text>
</g>
<!-- 12&#45;&gt;24 -->
<g id="edge42" class="edge">
<title>12&#45;&gt;24</title>
<path fill="none" stroke="#c0c0c0" stroke-width="2" d="M3868.5387,-168.8771C3910.4975,-159.0096 3978.16,-142.2267 4035.5,-124 4039.9911,-122.5724 4044.6173,-121.0178 4049.247,-119.4021"/>
<polygon fill="#c0c0c0" stroke="#c0c0c0" stroke-width="2" points="4050.4725,-122.681 4058.7126,-116.0213 4048.118,-116.0889 4050.4725,-122.681"/>
</g>
<!-- 27 -->
<g id="node28" class="node">
<title>27</title>
<path fill="none" stroke="#56d8d8" stroke-width="2" stroke-dasharray="5,2" d="M4224.5,-116C4224.5,-116 4194.5,-116 4194.5,-116 4188.5,-116 4182.5,-110 4182.5,-104 4182.5,-104 4182.5,-92 4182.5,-92 4182.5,-86 4188.5,-80 4194.5,-80 4194.5,-80 4224.5,-80 4224.5,-80 4230.5,-80 4236.5,-86 4236.5,-92 4236.5,-92 4236.5,-104 4236.5,-104 4236.5,-110 4230.5,-116 4224.5,-116"/>
<text text-anchor="middle" x="4209.5" y="-95.5" font-family="sans" font-size="10.00" fill="#000000">spades</text>
</g>
<!-- 12&#45;&gt;27 -->
<g id="edge45" class="edge">
<title>12&#45;&gt;27</title>
<path fill="none" stroke="#c0c0c0" stroke-width="2" d="M3868.6192,-174.0945C3947.2756,-166.051 4118.8375,-146.4932 4173.5,-124 4175.318,-123.2519 4177.1311,-122.3948 4178.9221,-121.458"/>
<polygon fill="#c0c0c0" stroke="#c0c0c0" stroke-width="2" points="4180.8397,-124.3892 4187.6146,-116.2435 4177.2387,-118.3864 4180.8397,-124.3892"/>
</g>
<!-- 13&#45;&gt;0 -->
<g id="edge13" class="edge">
<title>13&#45;&gt;0</title>
<path fill="none" stroke="#c0c0c0" stroke-width="2" d="M2333.4083,-79.9191C2341.933,-76.874 2350.9066,-74.0433 2359.5,-72 2531.0192,-31.2167 2742.677,-21.1989 2827.1403,-18.7672"/>
<polygon fill="#c0c0c0" stroke="#c0c0c0" stroke-width="2" points="2827.3643,-22.2625 2837.2666,-18.495 2827.1761,-15.2651 2827.3643,-22.2625"/>
</g>
<!-- 14&#45;&gt;0 -->
<g id="edge14" class="edge">
<title>14&#45;&gt;0</title>
<path fill="none" stroke="#c0c0c0" stroke-width="2" d="M2472.2175,-79.9241C2480.5132,-76.9537 2489.1966,-74.1488 2497.5,-72 2615.8629,-41.3701 2760.5021,-26.4725 2827.3537,-20.8183"/>
<polygon fill="#c0c0c0" stroke="#c0c0c0" stroke-width="2" points="2827.721,-24.2999 2837.3992,-19.9892 2827.1451,-17.3237 2827.721,-24.2999"/>
</g>
<!-- 15&#45;&gt;0 -->
<g id="edge15" class="edge">
<title>15&#45;&gt;0</title>
<path fill="none" stroke="#c0c0c0" stroke-width="2" d="M2611.8667,-79.9597C2619.6896,-77.1214 2627.7858,-74.3522 2635.5,-72 2702.196,-51.6628 2781.7662,-34.4374 2827.3861,-25.2165"/>
<polygon fill="#c0c0c0" stroke="#c0c0c0" stroke-width="2" points="2828.2886,-28.6053 2837.4066,-23.2097 2826.914,-21.7416 2828.2886,-28.6053"/>
</g>
<!-- 16&#45;&gt;0 -->
<g id="edge16" class="edge">
<title>16&#45;&gt;0</title>
<path fill="none" stroke="#c0c0c0" stroke-width="2" d="M2740.8065,-79.8468C2766.9194,-66.7903 2801.9917,-49.2541 2828.1212,-36.1894"/>
<polygon fill="#c0c0c0" stroke="#c0c0c0" stroke-width="2" points="2829.931,-39.1977 2837.31,-31.595 2826.8005,-32.9367 2829.931,-39.1977"/>
</g>
<!-- 17&#45;&gt;0 -->
<g id="edge17" class="edge">
<title>17&#45;&gt;0</title>
<path fill="none" stroke="#c0c0c0" stroke-width="2" d="M2961.9086,-79.8468C2943.6489,-68.2533 2919.8262,-53.1277 2900.3106,-40.7369"/>
<polygon fill="#c0c0c0" stroke="#c0c0c0" stroke-width="2" points="2902.0008,-37.6642 2891.6826,-35.2588 2898.2487,-43.5737 2902.0008,-37.6642"/>
</g>
<!-- 18&#45;&gt;0 -->
<g id="edge18" class="edge">
<title>18&#45;&gt;0</title>
<path fill="none" stroke="#c0c0c0" stroke-width="2" d="M3082.3086,-79.9396C3074.7277,-77.1648 3066.924,-74.4212 3059.5,-72 3004.9673,-54.2151 2940.6676,-37.1488 2901.2462,-27.1199"/>
<polygon fill="#c0c0c0" stroke="#c0c0c0" stroke-width="2" points="2902.0928,-23.7239 2891.5399,-24.6651 2900.3764,-30.5102 2902.0928,-23.7239"/>
</g>
<!-- 19&#45;&gt;0 -->
<g id="edge19" class="edge">
<title>19&#45;&gt;0</title>
<path fill="none" stroke="#c0c0c0" stroke-width="2" d="M3222.3847,-79.8903C3214.2043,-76.9591 3205.6637,-74.1766 3197.5,-72 3092.1129,-43.9015 2963.8361,-28.1077 2901.7404,-21.5856"/>
<polygon fill="#c0c0c0" stroke="#c0c0c0" stroke-width="2" points="2901.9511,-18.0889 2891.6452,-20.5462 2901.2341,-25.0521 2901.9511,-18.0889"/>
</g>
<!-- 20&#45;&gt;0 -->
<g id="edge20" class="edge">
<title>20&#45;&gt;0</title>
<path fill="none" stroke="#c0c0c0" stroke-width="2" d="M3361.5791,-79.9715C3353.0556,-76.9218 3344.0855,-74.0761 3335.5,-72 3177.2054,-33.723 2982.2331,-22.3562 2901.8454,-19.1677"/>
<polygon fill="#c0c0c0" stroke="#c0c0c0" stroke-width="2" points="2901.8491,-15.6654 2891.7243,-18.786 2901.5852,-22.6605 2901.8491,-15.6654"/>
</g>
<!-- 21&#45;&gt;0 -->
<g id="edge21" class="edge">
<title>21&#45;&gt;0</title>
<path fill="none" stroke="#c0c0c0" stroke-width="2" d="M3645.2494,-79.9706C3635.8736,-76.8415 3625.9662,-73.9661 3616.5,-72 3477.3729,-43.1042 3033.314,-24.3798 2901.6407,-19.3588"/>
<polygon fill="#c0c0c0" stroke="#c0c0c0" stroke-width="2" points="2901.7676,-15.8612 2891.6426,-18.9811 2901.5033,-22.8562 2901.7676,-15.8612"/>
</g>
<!-- 22&#45;&gt;0 -->
<g id="edge22" class="edge">
<title>22&#45;&gt;0</title>
<path fill="none" stroke="#c0c0c0" stroke-width="2" d="M3786.7737,-79.9951C3777.9155,-76.8226 3768.5139,-73.9242 3759.5,-72 3591.8603,-36.2145 3050.2495,-22.0351 2902.202,-18.7719"/>
<polygon fill="#c0c0c0" stroke="#c0c0c0" stroke-width="2" points="2901.9123,-15.2649 2891.8388,-18.5473 2901.7606,-22.2633 2901.9123,-15.2649"/>
</g>
<!-- 23&#45;&gt;0 -->
<g id="edge23" class="edge">
<title>23&#45;&gt;0</title>
<path fill="none" stroke="#c0c0c0" stroke-width="2" d="M3924.7856,-79.939C3915.9265,-76.7706 3906.5216,-73.8879 3897.5,-72 3701.6146,-31.0071 3063.8192,-20.4618 2902.0631,-18.4193"/>
<polygon fill="#c0c0c0" stroke="#c0c0c0" stroke-width="2" points="2901.7204,-14.9149 2891.6782,-18.2917 2901.6344,-21.9144 2901.7204,-14.9149"/>
</g>
<!-- 24&#45;&gt;0 -->
<g id="edge24" class="edge">
<title>24&#45;&gt;0</title>
<path fill="none" stroke="#c0c0c0" stroke-width="2" d="M4062.7945,-79.896C4053.9348,-76.7307 4044.5273,-73.8602 4035.5,-72 3811.2193,-25.7837 3076.3713,-19.0929 2901.901,-18.1505"/>
<polygon fill="#c0c0c0" stroke="#c0c0c0" stroke-width="2" points="2901.7068,-14.6496 2891.6891,-18.0986 2901.6711,-21.6495 2901.7068,-14.6496"/>
</g>
<!-- 25&#45;&gt;0 -->
<g id="edge25" class="edge">
<title>25&#45;&gt;0</title>
<path fill="none" stroke="#c0c0c0" stroke-width="2" d="M2821.9804,-79.8468C2829.1531,-69.4137 2838.2923,-56.1203 2846.2582,-44.5335"/>
<polygon fill="#c0c0c0" stroke="#c0c0c0" stroke-width="2" points="2849.2879,-46.3047 2852.069,-36.0814 2843.5196,-42.339 2849.2879,-46.3047"/>
</g>
<!-- 26&#45;&gt;0 -->
<g id="edge26" class="edge">
<title>26&#45;&gt;0</title>
<path fill="none" stroke="#c0c0c0" stroke-width="2" d="M3488.1109,-79.7553C3483.5394,-76.6842 3478.5565,-73.8858 3473.5,-72 3367.7753,-32.5712 3017.5994,-21.388 2901.9391,-18.7299"/>
<polygon fill="#c0c0c0" stroke="#c0c0c0" stroke-width="2" points="2901.8822,-15.2278 2891.8071,-18.5052 2901.727,-22.2261 2901.8822,-15.2278"/>
</g>
<!-- 27&#45;&gt;0 -->
<g id="edge27" class="edge">
<title>27&#45;&gt;0</title>
<path fill="none" stroke="#c0c0c0" stroke-width="2" d="M4188.5704,-79.8281C4183.8878,-76.6676 4178.7453,-73.8164 4173.5,-72 4050.5706,-29.432 3101.914,-19.8205 2901.5769,-18.2579"/>
<polygon fill="#c0c0c0" stroke="#c0c0c0" stroke-width="2" points="2901.5774,-14.7579 2891.551,-18.1816 2901.524,-21.7577 2901.5774,-14.7579"/>
</g>
</g>
</svg>
